<?xml version="1.0" encoding="utf-8"?>
<!-- Generator: Adobe Illustrator 20.1.0, SVG Export Plug-In . SVG Version: 6.00 Build 0)  -->
<svg version="1.1" id="圖層_1" xmlns="http://www.w3.org/2000/svg" xmlns:xlink="http://www.w3.org/1999/xlink" x="0px" y="0px"
	 viewBox="0 0 35 35" style="enable-background:new 0 0 35 35;" xml:space="preserve">
<style type="text/css">
	.st0{display:none;}
	.st1{display:inline;}
	.st2{fill:#F4AF5D;}
</style>
<g id="圖層_1_1_" class="st0">
	<g id="圖層_2_1_" class="st1">
	</g>
	<g class="st1">
		<path class="st2" d="M30.3,9.2H4.7C3.4,9.2,2.2,8,2.2,6.7l0,0c0-1.4,1.1-2.5,2.5-2.5h25.5c1.4,0,2.5,1.1,2.5,2.5l0,0
			C32.8,8,31.6,9.2,30.3,9.2z"/>
		<path class="st2" d="M30.3,20H4.7c-1.4,0-2.5-1.1-2.5-2.5l0,0c0-1.4,1.1-2.5,2.5-2.5h25.5c1.4,0,2.5,1.1,2.5,2.5l0,0
			C32.8,18.9,31.6,20,30.3,20z"/>
		<path class="st2" d="M30.3,30.9H4.7c-1.4,0-2.5-1.1-2.5-2.5l0,0c0-1.4,1.1-2.5,2.5-2.5h25.5c1.4,0,2.5,1.1,2.5,2.5l0,0
			C32.8,29.7,31.6,30.9,30.3,30.9z"/>
	</g>
</g>
<g>
	<path class="st2" d="M31.4,9H3.6C2.8,9,2.2,8.4,2.2,7.7v0c0-0.7,0.6-1.3,1.3-1.3h27.8c0.7,0,1.3,0.6,1.3,1.3v0
		C32.8,8.4,32.2,9,31.4,9z"/>
	<path class="st2" d="M31.4,28.7H3.6c-0.7,0-1.3-0.6-1.3-1.3v0c0-0.7,0.6-1.3,1.3-1.3h27.8c0.7,0,1.3,0.6,1.3,1.3v0
		C32.8,28.1,32.2,28.7,31.4,28.7z"/>
	<path class="st2" d="M31.4,18.8H3.6c-0.7,0-1.3-0.6-1.3-1.3v0c0-0.7,0.6-1.3,1.3-1.3h27.8c0.7,0,1.3,0.6,1.3,1.3v0
		C32.8,18.2,32.2,18.8,31.4,18.8z"/>
</g>
</svg>
