<?xml version="1.0" encoding="utf-8"?>
<!-- Generator: Adobe Illustrator 20.1.0, SVG Export Plug-In . SVG Version: 6.00 Build 0)  -->
<svg version="1.1" xmlns="http://www.w3.org/2000/svg" xmlns:xlink="http://www.w3.org/1999/xlink" x="0px" y="0px"
	 viewBox="0 0 600 600" style="enable-background:new 0 0 600 600;" xml:space="preserve">
<style type="text/css">
	.st0{display:none;}
	.st1{display:inline;}
	.st2{fill:#ECAA5B;}
</style>
<g id="圖層_1" class="st0">
	<g class="st1">
		<polygon class="st2" points="105.4,148.1 105.4,148.1 105.4,148.1 		"/>
		<path class="st2" d="M514.4,378.4c-6.2-3.6-12.9-5.3-19.6-5.3c-9.4,0-18.6,3.4-25.8,9.6c13-26.5,19.2-54.8,19.1-82.8
			c0.1-28-6.1-56.3-19.1-82.8c7.2,6.2,16.4,9.6,25.8,9.6c6.7,0,13.4-1.7,19.6-5.3c18.8-10.8,25.2-34.9,14.4-53.6
			c-7.3-12.6-20.5-19.6-34-19.6c-6.7,0-13.4,1.7-19.6,5.3c-14.9,8.6-22,25.5-18.9,41.5c-33.4-49.8-87.4-78.9-143.9-82.5
			c15.8-5.1,27.2-19.9,27.2-37.4c0-21.7-17.6-39.3-39.3-39.3c-21.7,0-39.3,17.6-39.3,39.3c0,17.5,11.5,32.3,27.3,37.4
			c-27.8,1.8-55.6,9.9-81.3,24.7c-26.6,15.3-47.9,36.2-63.5,60.3c4.5-16.7-2.6-35-18.3-44.1c-6.2-3.6-12.9-5.3-19.6-5.3v14
			c4.4,0,8.8,1.2,12.6,3.4c12.1,7,16.2,22.4,9.2,34.5c-4.5,7.8-12.9,12.6-21.9,12.6c-4.4,0-8.8-1.2-12.6-3.4
			c-5.8-3.4-10-8.8-11.8-15.3c-1.7-6.5-0.9-13.3,2.5-19.2c4.5-7.8,12.9-12.6,21.9-12.6l0-14c0,0,0,0,0,0c-13.6,0-26.8,7-34,19.6
			c-10.8,18.8-4.4,42.8,14.4,53.6c6.2,3.6,12.9,5.3,19.6,5.3c10.2,0,20.3-4,27.7-11.4c-13.1,25.6-20.5,54.6-20.5,85.4
			c0,29.6,6.9,57.7,19.1,82.6c-7.3-6.7-16.8-10.3-26.5-10.3v14c9,0,17.4,4.8,21.9,12.6c7,12.1,2.8,27.5-9.2,34.5
			c-3.8,2.2-8.2,3.4-12.6,3.4c-9,0-17.4-4.8-21.9-12.6c-7-12.1-2.8-27.5,9.2-34.5c3.8-2.2,8.2-3.4,12.6-3.4l0-14c0,0,0,0,0,0
			c-6.7,0-13.4,1.7-19.6,5.3c-18.8,10.8-25.2,34.9-14.4,53.6c7.3,12.6,20.5,19.6,34,19.6c6.7,0,13.4-1.7,19.6-5.3
			c15.1-8.7,22.2-26,18.8-42.2c31.4,47.3,83.6,79.6,143.6,83.7c-15.4,5.3-26.5,19.9-26.5,37.1c0,21.7,17.6,39.3,39.3,39.3
			s39.3-17.6,39.3-39.3c0-17.2-11.1-31.8-26.5-37.1c30.1-2,58.3-11.2,82.9-25.8c23.6-13.8,44.4-33,60.5-57c-3.1,16,4,32.9,18.9,41.5
			c6.2,3.6,12.9,5.3,19.6,5.3c13.6,0,26.8-7,34-19.6C539.6,413.3,533.2,389.3,514.4,378.4z M131.1,298c0-0.8,0-1.7,0.1-2.5
			c0-0.5,0-0.9,0-1.4c0-1,0.1-2.1,0.1-3.1c0-0.3,0-0.5,0-0.8c0.1-1.3,0.2-2.5,0.3-3.8c0,0,0,0,0,0c1.8-22.4,8.2-44.3,18.9-64.7
			l53.1,30.6c-6.9,14.2-10.8,30.1-10.8,47c0,17.3,4.1,33.6,11.3,48l-53.6,30.9c-10.7-20.4-17-42.3-18.9-64.7c0,0,0,0,0,0
			c-0.1-1.3-0.2-2.5-0.3-3.8c0-0.3,0-0.5,0-0.8c-0.1-1-0.1-2.1-0.1-3.1c0-0.5,0-0.9,0-1.4c0-0.8,0-1.7-0.1-2.5c0-0.7,0-1.3,0-2
			C131.1,299.3,131.1,298.7,131.1,298z M238.7,142.6c0.2-0.1,0.4-0.1,0.6-0.2c17-6.5,35.2-10.3,53.8-11v60.8
			c-34.5,2.3-64.6,20.9-82.6,48.1l-53-30.6c14.9-23.6,35.4-43.1,59.6-56.8c6.1-3.4,12.3-6.4,18.7-9.1
			C236.8,143.3,237.7,143,238.7,142.6z M450.5,378.8l-54.2-31.3c7.3-14.5,11.4-30.9,11.4-48.2c0-16.9-3.9-32.9-10.9-47.1l53.2-30.7
			c12.8,24.1,19.5,51.1,19.5,79.2C469.5,328.3,463,355,450.5,378.8z M210.8,299.3c0-13.5,3-26.4,8.4-37.9L286,300l-66.3,38.3
			C214,326.5,210.8,313.3,210.8,299.3z M307,192.1v-60.8c42.6,1.7,82.5,19.1,112.9,49.5c8.8,8.8,16.5,18.4,23,28.6l-53.1,30.6
			C371.8,212.8,341.7,194.2,307,192.1z M374.2,249.1L307,287.9v-77.8C334.9,212.2,359.3,227.2,374.2,249.1z M293,287.9l-66.9-38.6
			c14.8-21.9,39.1-36.9,66.9-39.1V287.9z M293,312.1v76.4c-27.4-2.2-51.4-16.8-66.2-38.1L293,312.1z M293,406.5V469
			c-26.6-1.2-52.7-8.7-75.9-21.8c-24.2-13.7-44.7-33.2-59.6-56.8l53.6-31C229.2,386.1,258.9,404.3,293,406.5z M307,312.1l66.5,38.4
			c-15,21.4-39,35.9-66.5,38V312.1z M314,300l67.1-38.8c5.5,11.6,8.5,24.5,8.5,38.1c0,14-3.2,27.3-9,39.1L314,300z M307,469.1v-62.5
			c34.2-2.1,64.1-20.3,82.2-47l54.3,31.4c-14.4,22.7-34.2,41.7-58.2,55.5C361.4,460.3,334.5,468,307,469.1z M470.4,181
			c1.7-6.5,5.9-12,11.8-15.3c3.8-2.2,8.2-3.4,12.6-3.4c9,0,17.4,4.8,21.9,12.6c3.4,5.8,4.3,12.7,2.5,19.2s-5.9,12-11.8,15.3
			c-3.8,2.2-8.2,3.4-12.6,3.4c-9,0-17.4-4.8-21.9-12.6C469.5,194.4,468.6,187.6,470.4,181z M275,75.1c0-13.9,11.3-25.3,25.3-25.3
			c13.9,0,25.3,11.3,25.3,25.3c0,13.9-11.3,25.3-25.3,25.3C286.3,100.4,275,89.1,275,75.1z M325.3,524.9c0,13.9-11.3,25.3-25.3,25.3
			c-13.9,0-25.3-11.3-25.3-25.3c0-13.9,11.3-25.3,25.3-25.3C314,499.6,325.3,510.9,325.3,524.9z M516.7,425.1
			c-4.5,7.8-12.9,12.6-21.9,12.6c-4.4,0-8.8-1.2-12.6-3.4c-5.8-3.4-10-8.8-11.8-15.3c-1.7-6.5-0.9-13.3,2.5-19.2
			c4.5-7.8,12.9-12.6,21.9-12.6c4.4,0,8.8,1.2,12.6,3.4c5.8,3.4,10,8.8,11.8,15.3S520,419.2,516.7,425.1z"/>
		<polygon class="st2" points="105.2,373 105.2,373 105.2,373 		"/>
	</g>
</g>
<g id="圖層_2">
	<path class="st2" d="M540.4,574.5c-5.5,0-54.8,0-120,0L300,289.6L179.6,574.5c-67.7,0-119.2,0-124,0c-14.8,0-9.3,24.7-9.3,24.7
		h508.2C554.6,599.2,554.9,574.5,540.4,574.5z M300,347l95.9,227H204.1L300,347z"/>
</g>
</svg>
