<?xml version="1.0" encoding="utf-8"?>
<!-- Generator: Adobe Illustrator 16.0.0, SVG Export Plug-In . SVG Version: 6.00 Build 0)  -->
<!DOCTYPE svg PUBLIC "-//W3C//DTD SVG 1.1//EN" "http://www.w3.org/Graphics/SVG/1.1/DTD/svg11.dtd">
<svg version="1.1" id="圖層_1" xmlns="http://www.w3.org/2000/svg" xmlns:xlink="http://www.w3.org/1999/xlink" x="0px" y="0px"
	 width="500px" height="500px" viewBox="0 0 500 500" enable-background="new 0 0 500 500" xml:space="preserve">
<g>
	
		<image overflow="visible" opacity="0.75" enable-background="new    " width="1642" height="2433" xlink:href="A96E519152001AD3.png"  transform="matrix(0.2391 0 0 0.2399 69.8662 -45.8369)">
	</image>
	<g>
		
			<image overflow="visible" opacity="0.9" width="309" height="501" xlink:href="A96E519152001AD5.png"  transform="matrix(1 0 0 1 111.5 -4.5)">
		</image>
		<g>
			<g>
				<path fill="#1C1B1B" d="M141.368,204.893c2.358,0.182,4.713,0.613,7.072,0.607c18.211-0.043,36.422-0.165,54.634-0.268
					c0.472-0.003,0.94-0.055,1.595-0.098c0-4.216,0-8.391,0-12.732c-0.475-0.022-1.047-0.084-1.616-0.068
					c-10.372,0.328-20.743,0.623-31.112,1.015c-4.889,0.185-7.822-3.312-6.515-8.081c0.098-0.361,0.951-0.734,1.455-0.734
					c12.387-0.038,24.776-0.024,37.163-0.024c0.225,0,0.45-0.058,0.921-0.121c0-4.334,0-8.631,0-12.859c-8.455,0-17.015,0-25.562,0
					c-0.213,1.619-0.321,2.968-0.589,4.283c-0.149,0.733-0.4,1.582-0.902,2.073c-0.579,0.566-1.546,1.168-2.235,1.062
					c-0.659-0.104-1.589-1.042-1.685-1.713c-0.295-2.094-0.436-4.246-0.312-6.355c0.833-14.216,1.36-28.438,0.867-42.679
					c-0.102-2.898-0.455-5.789-0.574-8.69c-0.029-0.676,0.238-1.604,0.713-1.978c0.313-0.248,1.49,0.079,1.857,0.509
					c1.733,2.038,4.015,1.689,6.242,1.672c16.372-0.133,32.745-0.297,49.117-0.374c2.288-0.01,4.304-0.576,6.236-1.709
					c1.882-1.104,2.883-0.938,4.244,0.802c2.094,2.672,2.737,6.012,1.727,8.941c-2.304,6.696-1.808,13.582-2.194,20.398
					c-0.417,7.4-0.378,14.824-0.652,22.232c-0.058,1.56-0.358,3.222-1.028,4.604c-0.384,0.793-1.76,1.562-2.639,1.506
					c-0.637-0.038-1.361-1.377-1.73-2.266c-0.35-0.838-0.286-1.846-0.396-2.707c-8.429,0-16.823,0-25.452,0c0,4.523,0,8.77,0,13.127
					c0.135,0.03,0.413,0.15,0.688,0.145c6.761-0.095,13.523-0.219,20.285-0.307c2.96-0.038,5.677-0.875,8.371-2.068
					c4.788-2.122,11.565,2.844,11.072,8.062c-0.053,0.541-0.676,1.284-1.195,1.466c-0.924,0.322-1.971,0.372-2.969,0.382
					c-11.505,0.122-23.012,0.213-34.518,0.312c-0.64,0.004-1.28,0.001-2.097,0.001c0,4.381,0,8.561,0,12.866
					c0.385,0.021,0.784,0.06,1.183,0.056c13.584-0.131,27.169-0.23,40.751-0.429c3.073-0.046,6.169-0.295,9.208-0.745
					c1.652-0.246,3.348-0.892,4.791-1.747c2.866-1.695,5.189-0.756,7.473,1.04c2.071,1.628,3.182,3.726,3.358,6.389
					c0.111,1.671-0.599,2.482-2.167,2.562c-2.956,0.148-5.918,0.265-8.876,0.316c-3.073,0.052-6.147,0.011-9.122,0.011
					c-0.51,12.83-1.018,25.537-1.546,38.775c2.22-0.424,4.278-0.725,6.282-1.235c1.135-0.289,2.193-0.887,3.254-1.406
					c1.768-0.871,3.543-0.709,4.686,0.771c1.485,1.93,2.838,4.061,3.741,6.307c0.784,1.94-0.103,3.054-2.262,3.147
					c-3.25,0.146-6.513-0.006-9.771-0.021c-1.888-0.01-3.777,0-5.945,0c-0.412,13.933-0.821,27.705-1.246,42.115
					c7.369-3.687,14.334-7.166,21.667-10.83c-1.599,4.063-2.798,8.104-6.357,10.471c-8.181,5.439-16.53,10.632-24.81,15.925
					c-2.144,1.368-4.334,2.67-6.405,4.146c-1.126,0.799-1.945,0.808-2.613-0.386c-1.765-3.146-3.5-6.307-5.189-9.487
					c-0.263-0.494-0.266-1.146-0.309-1.729c-0.082-1.168,0.539-1.815,1.62-1.34c2.496,1.094,4.773,0.248,7.036-0.604
					c3.266-1.229,6.509-2.521,9.698-3.928c0.557-0.248,1.118-1.191,1.139-1.83c0.318-10.199,0.574-20.396,0.789-30.599
					c0.078-3.786,0.011-7.575,0.011-11.629c-2.515,0.152-5.294,0.117-8.002,0.533c-3.798,0.588-6.455-0.672-6.937-5.433
					c-0.387-3.813-0.422-3.575,3.356-3.229c3.867,0.354,7.794,0.08,12.022,0.08c0.234-12.769,0.469-25.54,0.709-38.532
					c-2.322,0-4.142-0.027-5.96,0.005c-33.095,0.571-66.19,1.156-99.287,1.721c-5.428,0.093-6.139-0.512-7.454-5.897
					C137.584,206.221,139.3,204.552,141.368,204.893z M237.628,126.926c-19.384,0.299-38.492,0.591-57.856,0.89
					c0,4.931,0,9.52,0,14.019c8.541,0,17.107,0,25.893,0c-0.361-2.836-0.687-5.405-1.016-7.976
					c-0.145-1.144-0.324-2.381,1.181-2.711c2.562-0.562,5.413,1.825,5.418,4.447c0.006,1.921,0.026,4.453,0.026,6.512
					c1.321-0.078,2.744-0.085,4.144-0.259c2.933-0.364,5.846-0.894,8.783-1.206c2.312-0.247,3.309,0.501,3.824,2.728
					c0.331,1.434,0.49,2.911,0.669,4.375c0.137,1.144-0.347,1.786-1.585,1.823c-2.191,0.065-4.38,0.243-6.57,0.276
					c-3.245,0.05-6.489,0.013-10.026,0.013c0,5.023-0.022,8.932-0.022,13.038c5.254,0,10.576-0.027,15.897,0.011
					c3.124,0.021,6.261-1.637,9.738,0.377C236.629,151.105,237.119,139.23,237.628,126.926z M179.36,163.528
					c8.627,0,17.232,0,26.028,0c0-4.819,0-9.355,0-13.681c-8.649,0-17.26,0-26.028,0C179.36,154.657,179.36,159.133,179.36,163.528z
					"/>
			</g>
			<g>
				<path fill="#1C1B1B" d="M263.588,477.838c-2.591-0.24-5.186-0.424-7.768-0.742c-2.463-0.307-4.944-0.6-7.354-1.174
					c-4.811-1.146-7.277-3.928-7.589-9.027c-0.323-5.198-0.337-10.428-0.253-15.641c0.234-14.707,0.604-29.414,0.889-44.123
					c0.25-12.748,0.46-25.504,0.678-38.256c0.062-3.619,0.166-7.242-1.762-10.549c-0.21-0.361-0.146-1.059,0.073-1.436
					c0.136-0.232,0.862-0.31,1.232-0.185c1.895,0.637,3.837,1.203,5.609,2.098c1.462,0.738,2.045,2.179,1.947,3.9
					c-0.477,8.223-1.094,16.442-1.319,24.674c-0.614,22.416-1.042,44.834-1.57,67.248c-0.203,8.641,1.728,10.363,9.856,12.156
					c7.022,1.549,14.19,0.897,21.277,0.528c4.999-0.26,9.972-1.18,14.938-1.926c3.309-0.492,5.399-2.408,6.148-5.768
					c0.475-2.133,1.141-4.219,2.138-6.512c0.921,2.096,2.111,4.12,2.703,6.305c0.909,3.346,1.722,6.779,1.997,10.221
					c0.324,4.08-0.969,5.449-5.057,6.016c-5.217,0.729-10.461,1.236-15.692,1.851c-0.64,0.076-1.267,0.225-1.901,0.34
					C276.402,477.838,269.993,477.838,263.588,477.838z"/>
			</g>
			<g>
				<path fill="#1C1B1B" d="M337.523,422.248c-0.318,1.309-0.449,2.701-0.99,3.906c-1.413,3.139-5.294,3.698-7.371,0.973
					c-1.23-1.615-2.196-3.525-2.902-5.441c-4.246-11.485-9.612-22.383-16.67-32.416c-0.988-1.403-1.983-2.805-3.016-4.178
					c-0.92-1.219-1.27-2.482-0.12-3.68c1.228-1.283,2.592-0.732,3.637,0.23c2.608,2.403,5.252,4.801,7.616,7.438
					c6.652,7.434,12.715,15.312,17.157,24.315C336.229,416.168,337.377,419.021,337.523,422.248z"/>
			</g>
			<g>
				<path fill="#1C1B1B" d="M217.475,390.531c0.785,0.111,0.957,0.121,1.122,0.166c3.341,0.893,3.49,1.094,2.5,4.389
					c-3.845,12.768-8.937,24.955-17.056,35.68c-1.173,1.547-2.568,2.933-3.893,4.363c-0.4,0.43-0.893,0.781-1.373,1.127
					c-2.664,1.926-5.301,2.027-6.953,0.279c-1.491-1.57-1.204-4.435,0.733-6.795c0.673-0.822,1.384-1.638,2.194-2.318
					c8.498-7.125,14.334-16.285,19.714-25.785c1.311-2.312,2.39-4.752,3.669-7.084C218.865,393.215,219.408,391.996,217.475,390.531
					z"/>
			</g>
			<g>
				<g>
					<rect x="208.216" y="14.55" fill="#1C1B1B" width="1.248" height="14.139"/>
				</g>
				<g>
					<g>
						<path fill="#1C1B1B" d="M250.688,60.517c-0.213-0.05-21.38-5.092-35.92-20.883c-0.064-0.072-0.175-0.081-0.252-0.021
							c-0.049,0.039-0.062,0.099-0.058,0.157c-0.004-0.003-0.009-0.007-0.012-0.012c0.004,0.006,0.009,0.012,0.013,0.018
							c0.004,0.03,0.002,0.061,0.019,0.087c11.13,16.271,18.933,20.948,19.011,20.992c0.027,0.018,0.061,0.026,0.093,0.026h17.065
							c0.093,0,0.174-0.071,0.184-0.166C250.841,60.624,250.777,60.537,250.688,60.517z"/>
					</g>
					<g>
						<path fill="#1C1B1B" d="M208.589,30.626c-0.013-0.141-0.037-0.28-0.041-0.418c0.005,0.185-0.03,0.374-0.045,0.559
							C208.533,30.72,208.56,30.674,208.589,30.626z"/>
					</g>
					<g>
						<path fill="#1C1B1B" d="M203.032,39.631c-0.004,0.006-0.008,0.01-0.013,0.015c0.006-0.061-0.009-0.125-0.062-0.164
							c-0.081-0.059-0.191-0.044-0.255,0.034c-6.067,7.605-15.609,12.91-22.545,16.02c-7.524,3.374-13.692,4.965-13.753,4.982
							c-0.09,0.022-0.148,0.109-0.137,0.202c0.012,0.093,0.092,0.163,0.185,0.163h17.358c0.032,0,0.065-0.009,0.093-0.026
							c0.079-0.044,7.921-4.747,19.098-21.12c0.018-0.026,0.015-0.055,0.018-0.084C203.024,39.645,203.028,39.639,203.032,39.631z"
							/>
					</g>
					<g>
						<path fill="#1C1B1B" d="M217.811,60.511l-6.546-21.989c-0.03,0.01-0.065,0.014-0.098,0.024c0,0,0-0.002-0.003-0.004
							c-0.043-0.023-0.095-0.029-0.143-0.012c-0.74,0.244-1.422,0.359-2.084,0.369c-0.852-0.011-1.66-0.18-2.417-0.459l-0.011,0.042
							c-0.038-0.013-0.072-0.018-0.11-0.031c-0.046-0.017-0.101-0.015-0.146,0.009c-0.047,0.023-0.08,0.064-0.095,0.113l-6.57,22.07
							c-0.018,0.055-0.008,0.116,0.029,0.162c0.034,0.048,0.089,0.076,0.147,0.076h17.861c0.058,0,0.113-0.028,0.148-0.076
							c0.036-0.046,0.046-0.107,0.029-0.162l-0.04-0.133L217.811,60.511L217.811,60.511z"/>
					</g>
					<g>
						<path fill="#1C1B1B" d="M208.84,27.948c-2.43,0-4.406,1.902-4.406,4.238c0,2.338,1.976,4.238,4.406,4.238
							c2.43,0,4.406-1.9,4.406-4.238C213.246,29.85,211.27,27.948,208.84,27.948z"/>
					</g>
				</g>
				<g>
					<path fill="#1C1B1B" d="M251.671,70.114c-2.939,0-83.338,0-86.247,0c-4.104,0-4.104-5.106-4.104-5.106h94.456
						C255.775,65.008,255.775,70.114,251.671,70.114z"/>
				</g>
				<g>
					<path fill="#1C1B1B" d="M149.745,107.125c3.589,0,113.53,0,117.782,0c3.519,0,3.459,6.256,3.459,6.256h-124.7
						C146.286,113.381,146.155,107.125,149.745,107.125z"/>
				</g>
				<g>
					<rect x="151.663" y="100.765" fill="#1C1B1B" width="113.771" height="3.115"/>
				</g>
				<g>
					<g>
						<g>
							<path fill="#1C1B1B" d="M184.884,79.555c0.869-0.042,1.648-0.126,2.36-0.204c0.507-0.054,0.992-0.096,1.461-0.119v-7.148
								h-3.969V79.2C184.787,79.319,184.858,79.426,184.884,79.555z"/>
						</g>
						<g>
							<path fill="#1C1B1B" d="M186.491,89.57l-0.472,0.036c-0.427,0.032-0.856,0.064-1.283,0.096v8.885h3.969v-7.254
								C187.879,90.916,187.078,90.386,186.491,89.57z"/>
						</g>
					</g>
					<g>
						<g>
							<path fill="#1C1B1B" d="M231.589,88.947l-0.438,0.08c-0.591,0.11-1.187,0.22-1.771,0.324v9.236h3.664v-8.454
								C232.512,89.835,232.003,89.47,231.589,88.947z"/>
						</g>
						<g>
							<path fill="#1C1B1B" d="M231.421,79.231c0.564-0.125,1.104-0.226,1.623-0.295v-6.854h-3.664v7.55
								C230.132,79.514,230.806,79.368,231.421,79.231z"/>
						</g>
					</g>
					<g>
						<path fill="#1C1B1B" d="M198.315,95.198c-1.115-0.093-2.396-5.818-4.08-8.475c0.38-1.045,0.188-2.688-0.707-3.835
							c0.998,0.2,1.797,1.501,1.797,1.501c1.001,1.857,4.258,0.655,4.258,0.655c-1.452,0.277-2.688-1.823-2.688-1.823
							c-1.862-2.799-4.109-1.054-4.109-1.054c-2.353-2.025-4.513-0.713-9.109-0.727c-0.765-0.438-1.636-1.501-1.717-1.599
							c-0.005-0.006-0.009-0.014-0.014-0.021c0.523,0.27,1.119,0.102,1.119,0.102c-0.602-0.08-1.925-1.657-1.929-1.665l0,0
							c0.404,0.226,1.099,0.102,1.099,0.102c-0.481-0.081-0.677-0.876-0.677-0.876c-0.184-0.636-0.586-0.918-0.917-1.049
							c0.462,0.027,0.717-0.223,0.717-0.223c-0.342-0.032-0.879-0.802-0.879-0.802c-1.146-1.628-2.527-1.425-2.527-1.425
							c0.174-0.296,0.29-0.51,0.29-0.51c-0.793-0.171-1.346,0.002-1.708,0.224c-0.43-0.462-1.273-0.523-1.273-0.523
							c0.264,0.207,0.393,0.484,0.458,0.726c-0.576-0.111-1.25,0.21-1.25,0.21c0.498,0.07,0.798,0.425,0.945,0.645
							c-0.255,0.341-0.36,0.659-0.36,0.659c-1.006,1.952-0.872,2.942-1.635,4.102c-0.271,0.568,0.937,1.208,1.505,0.747
							c0.885-0.722,1.617-1.502,2.549-1.734c0.443,0.839,0.742,1.749,0.671,2.621c-1.26,2.599,0.192,4.042-0.115,5.646
							c-1.335,1.202-2.39,3.001-3.212,3.627c-0.019,0.014-0.038,0.029-0.052,0.043c-0.084,0.061-0.166,0.106-0.244,0.138
							c0.016,0.024,0.035,0.043,0.05,0.068c-0.357,0.479,0.169,0.72,0.169,0.72s2.418,1.432,4.175,4.057
							c-0.268,2.261,3.264,0.611,1.211-1.133c-1.613-1.372-1.222-2.692-2.142-3.927l3.271-2.158c0,0,0.05-0.074,0.117-0.184
							c1.875-0.07,4.158-0.272,6.207-0.419c1.071,3.54,7.112,1.797,8.82,7.92C198.917,100.07,199.738,95.312,198.315,95.198z"/>
					</g>
					<g>
						<path fill="#1C1B1B" d="M242.728,93.604c-1.011,0.012-2.642-5.5-4.377-7.961c0.254-1.062-0.053-2.66-0.958-3.706
							c0.917,0.107,1.747,1.312,1.747,1.312c1.054,1.735,3.891,0.261,3.891,0.261c-1.289,0.404-2.572-1.551-2.572-1.551
							c-1.913-2.583-3.792-0.664-3.792-0.664c-2.289-1.78-4.127-0.292-8.271,0.107c-0.723-0.361-1.603-1.328-1.681-1.416
							c-0.003-0.006-0.009-0.013-0.011-0.019c0.492,0.218,1.015-0.001,1.015-0.001c-0.547-0.024-1.871-1.457-1.879-1.459
							c0-0.003,0-0.003,0-0.003c0.386,0.186,0.999,0,0.999,0c-0.437-0.034-0.682-0.799-0.682-0.799
							c-0.217-0.608-0.603-0.849-0.911-0.945c0.42-0.02,0.626-0.285,0.626-0.285c-0.31,0-0.859-0.711-0.859-0.711
							c-1.167-1.498-2.396-1.17-2.396-1.17c0.132-0.307,0.222-0.53,0.222-0.53c-0.732-0.096-1.216,0.125-1.523,0.375
							c-0.425-0.416-1.192-0.397-1.192-0.397c0.257,0.178,0.393,0.438,0.471,0.67c-0.525-0.057-1.104,0.32-1.104,0.32
							c0.453,0.022,0.753,0.344,0.902,0.546c-0.201,0.359-0.27,0.681-0.27,0.681c-0.745,2.011-0.54,2.971-1.133,4.181
							c-0.198,0.582,0.945,1.104,1.418,0.597c0.735-0.787,1.333-1.622,2.152-1.933c0.471,0.782,0.815,1.651,0.823,2.515
							c-0.92,2.669,0.51,3.956,0.362,5.562c-1.101,1.301-1.9,3.164-2.593,3.854c-0.015,0.017-0.029,0.033-0.043,0.049
							c-0.069,0.065-0.141,0.118-0.208,0.157c0.019,0.023,0.034,0.039,0.053,0.061c-0.283,0.505,0.21,0.693,0.21,0.693
							s2.299,1.191,4.101,3.611c-0.053,2.249,2.993,0.309,0.997-1.222c-1.567-1.202-1.324-2.535-2.256-3.668l2.77-2.416
							c0,0,0.04-0.077,0.091-0.191c1.684-0.237,3.724-0.645,5.56-0.973c1.256,3.383,6.559,1.124,8.604,6.987
							C243.675,98.341,244.02,93.59,242.728,93.604z"/>
					</g>
				</g>
				<path fill="#1C1B1B" d="M210.631,14.833c0,0,3.384-1.986,6.321,0.88c0,0,2.847,2.338,5.915-0.777c0,0-1.954,7.416-8.82,4.967
					c0,0-1.897-0.733-3.416,0.11"/>
			</g>
			<g>
				<rect x="143.69" y="341.449" fill="#1C1B1B" width="1.113" height="136.389"/>
			</g>
			<g>
				<rect x="168.811" y="325.4" fill="#1C1B1B" width="1.112" height="152.438"/>
			</g>
			<path fill="#1C1B1B" d="M238.318,477.66"/>
			<path fill="#1C1B1B" d="M247.428,367.107"/>
			<g>
				<rect x="319.539" y="421.676" fill="#1C1B1B" width="1.113" height="56.162"/>
			</g>
			<g>
				<rect x="344.659" y="437.953" fill="#1C1B1B" width="1.113" height="39.885"/>
			</g>
			<g>
				<rect x="364.761" y="464.477" fill="#1C1B1B" width="1.113" height="13.361"/>
			</g>
			<g>
				<g>
					<path fill="#1C1B1B" d="M223.523,309.756l-0.011-0.184c-0.141-1.982,0.419-3.793,1.527-5.213
						c-2.67-1.312-5.331-2.447-7.99-3.406l2.009-7.787c6.083,1.943,12.088,4.639,17.961,8.09c0.586-0.223,1.161-0.443,1.721-0.664
						c-13.697-8.258-28.255-12.559-43.095-12.559c-0.02,0-0.043,0-0.063,0c-22.846,0.02-45.416,9.986-65.273,28.826l1.02,1.074
						c2.478-2.353,4.989-4.535,7.524-6.595l5.192,6.593c-4.653,3.616-9.373,7.688-14.178,12.246l5.104,5.379
						c22.577-21.42,41.924-31.339,60.863-31.181c9.177,0.07,18.497,2.662,28.07,7.758
						C223.631,311.166,223.557,310.299,223.523,309.756z M145.218,317.025l-5.21-6.617c7.216-5.715,14.641-10.256,22.187-13.633
						l3.594,7.467C159.051,307.439,152.21,311.695,145.218,317.025z M167.131,303.611l-3.578-7.435
						c8.788-3.764,17.726-5.944,26.664-6.553l0.967,7.59C183.256,297.783,175.266,299.918,167.131,303.611z M192.669,297.135
						l-0.971-7.611c8.702-0.424,17.394,0.66,25.937,3.218l-1.99,7.715C207.988,297.871,200.355,296.773,192.669,297.135z"/>
				</g>
				<g>
					<path fill="#1C1B1B" d="M261.92,321.365l5.174,5.451l-3.019,2.826c0.19,0.084,0.376,0.18,0.565,0.264
						c0.305,0.129,0.606,0.266,0.912,0.402l2.578-2.398l3.157,3.332c0.675,0.004,1.358,0.012,2.062,0.016l-10.355-10.914
						c-1.785-1.879-3.605-3.65-5.441-5.371c-0.427,0.271-0.859,0.549-1.285,0.82C258.174,317.568,260.062,319.406,261.92,321.365z"
						/>
				</g>
				<g>
					<path fill="#1C1B1B" d="M253.895,325.834c0.285,0,0.568,0.055,0.854,0.084c-1.992-1.881-3.977-3.676-5.95-5.377
						c-0.551,0.354-1.105,0.703-1.657,1.055c-0.606,0.389-1.214,0.769-1.818,1.148c-1.069,0.67-2.083,1.318-3.069,1.975
						c1.747,1.455,3.507,3.01,5.274,4.623C248.922,327.145,251.26,325.834,253.895,325.834z"/>
				</g>
				<g>
					<path fill="#1C1B1B" d="M396.353,463.057l1.075-1.021L292.341,351.275c-0.678,0.004-1.354,0.009-2.03,0.013l16.114,16.985
						l-5.606,5.775l-10.319-10.881c-1.198,2.875-3.394,4.328-4.828,5.004c-0.155,0.074-0.312,0.125-0.467,0.191l14.673,15.469
						c-0.236-2.352,0.512-4.662,2.289-6.521c0.299-0.312,0.617-0.586,0.947-0.846l-1.271-1.338l5.604-5.775l18.879,19.898
						l-0.345,0.346c0.241,0.287,0.479,0.574,0.715,0.859l0.397-0.396l15.562,16.398l-3.102,3.1c0.179,0.349,0.366,0.691,0.539,1.041
						l3.327-3.33l18.102,19.08l-0.009-0.01l-5.688,5.688l-12.82-13.515c0.229,1.103,0.392,2.254,0.446,3.467l0.04,0.849
						l-0.203,0.826c-0.077,0.317-0.14,0.647-0.202,0.975c-0.202,1.041-0.465,2.32-1.025,3.664l45.155,47.594l5.381-5.104
						l-18.32-19.312l5.643-5.641l-0.789-0.789l-5.621,5.621l-16.915-17.828l5.689-5.689L396.353,463.057z"/>
				</g>
			</g>
			<g>
				<rect x="219.055" y="320.826" fill="#1C1B1B" width="1.112" height="63.012"/>
			</g>
			<g>
				<path fill="#1C1B1B" d="M219.055,417.242v60.596h1.112v-63.014C219.802,415.643,219.432,416.447,219.055,417.242z"/>
			</g>
			<g>
				<path fill="#1C1B1B" d="M194.732,443.711c-0.27,0-0.535-0.021-0.799-0.041v33.99h1.112v-33.965
					C194.941,443.697,194.837,443.711,194.732,443.711z"/>
			</g>
			<g>
				<path fill="#1C1B1B" d="M195.045,419.004V315.352h-1.112v104.791C194.312,419.773,194.676,419.385,195.045,419.004z"/>
			</g>
			<g>
				<rect x="294.417" y="390.709" fill="#1C1B1B" width="1.114" height="59.047"/>
			</g>
			<g>
				<rect x="269.296" y="369.062" fill="#1C1B1B" width="1.113" height="92.399"/>
			</g>
			<g>
				<rect x="244.175" y="337.922" fill="#1C1B1B" width="1.113" height="11.078"/>
			</g>
			<g>
				<g>
					<path fill="#1C1B1B" d="M335.83,379.221c0.177-0.354,0.275-0.758,0.292-1.199c0.014-0.414-0.033-0.864-0.145-1.381
						c-0.109-0.5-0.257-1.07-0.434-1.684c-0.161-0.633-0.288-1.162-0.373-1.58c-0.081-0.406-0.122-0.74-0.122-0.998
						c-0.001-0.223,0.027-0.4,0.086-0.527c0.062-0.131,0.148-0.248,0.271-0.356c0.149-0.138,0.316-0.231,0.512-0.285
						c0.2-0.06,0.414-0.067,0.629-0.035c0.234,0.035,0.47,0.115,0.701,0.236c0.235,0.118,0.442,0.282,0.642,0.498
						c0.845,0.922,0.838,1.922-0.02,3.147c-0.105,0.148-0.093,0.348,0.026,0.482l0.161,0.18c0.143,0.158,0.385,0.176,0.544,0.037
						l1.622-1.381c0.099-0.082,0.147-0.207,0.136-0.334c-0.094-0.988-0.537-1.924-1.321-2.781c-0.397-0.434-0.825-0.779-1.273-1.027
						c-0.461-0.256-0.931-0.416-1.392-0.477c-0.479-0.066-0.95-0.033-1.386,0.096c-0.443,0.125-0.86,0.365-1.244,0.715
						c-0.595,0.545-0.932,1.25-0.998,2.093c-0.063,0.795,0.064,1.799,0.396,3.067c0.162,0.617,0.287,1.135,0.374,1.558
						c0.082,0.397,0.119,0.733,0.108,1.004c-0.006,0.252-0.049,0.453-0.128,0.618c-0.078,0.16-0.21,0.328-0.393,0.498
						c-0.19,0.175-0.397,0.285-0.635,0.343c-0.248,0.057-0.498,0.063-0.743,0.022c-0.259-0.045-0.518-0.143-0.771-0.287
						c-0.261-0.147-0.493-0.332-0.691-0.547c-0.216-0.235-0.373-0.51-0.48-0.836c-0.109-0.332-0.161-0.68-0.152-1.039
						c0.008-0.36,0.08-0.729,0.215-1.094c0.133-0.361,0.334-0.697,0.599-0.998c0.132-0.15,0.129-0.375-0.008-0.521l-0.178-0.191
						c-0.139-0.147-0.367-0.168-0.527-0.041l-2.188,1.726c-0.116,0.092-0.171,0.242-0.141,0.387
						c0.253,1.193,0.817,2.275,1.677,3.215c0.946,1.031,1.96,1.613,3.018,1.729c0.14,0.015,0.273,0.021,0.408,0.021
						c0.915,0,1.756-0.346,2.503-1.027C335.385,379.914,335.654,379.572,335.83,379.221z"/>
				</g>
				<g>
					<path fill="#1C1B1B" d="M337.431,385.951c-0.596-0.213-1.015-0.432-1.239-0.646c-0.298-0.293-0.205-0.441-0.15-0.527
						c0.134-0.213,0.431-0.59,1.075-1.18l2.531-2.315l1.504,1.553c0.147,0.151,0.389,0.158,0.546,0.017l0.495-0.455
						c0.075-0.07,0.121-0.17,0.124-0.275c0.004-0.104-0.034-0.205-0.107-0.281l-1.48-1.549c0.149-0.139,0.3-0.277,0.444-0.416
						c0.238-0.229,0.479-0.451,0.727-0.678c0.157-0.146,0.169-0.391,0.021-0.549l-0.149-0.166c-0.111-0.121-0.287-0.16-0.438-0.097
						c-0.362,0.15-0.679,0.265-0.944,0.335c-0.259,0.067-0.475,0.106-0.69,0.116c-0.289,0-0.664-0.104-1.124-0.312
						c-0.313-0.129-0.569-0.108-0.766,0.064c-0.039,0.035-0.376,0.371,0.05,0.838c0.121,0.131,0.238,0.258,0.358,0.379
						c0.023,0.021,0.046,0.045,0.068,0.068l-2.823,2.582c-0.347,0.318-0.632,0.607-0.847,0.855
						c-0.231,0.268-0.387,0.537-0.458,0.799c-0.084,0.299-0.064,0.588,0.056,0.856c0.104,0.234,0.274,0.484,0.511,0.74
						c0.446,0.49,0.862,0.834,1.235,1.022c0.365,0.185,0.771,0.277,1.201,0.277c0.003,0,0.066-0.002,0.07-0.002
						c0.175-0.004,0.323-0.123,0.367-0.293l0.078-0.299C337.726,386.221,337.619,386.02,337.431,385.951z"/>
				</g>
				<g>
					<path fill="#1C1B1B" d="M341.624,393.117c0.222,0.242,0.478,0.398,0.759,0.465c0.18,0.041,0.354,0.064,0.521,0.064
						c0.065,0,0.132-0.004,0.183-0.011c0.262-0.018,0.525-0.079,0.786-0.182c0.187-0.074,0.287-0.279,0.229-0.474l-0.058-0.198
						c-0.047-0.16-0.19-0.273-0.355-0.279c-0.05-0.002-0.102-0.008-0.155-0.017c-0.046-0.014-0.092-0.03-0.146-0.055
						c0,0-0.022-0.01-0.081-0.072c-0.055-0.055-0.09-0.104-0.088-0.135c0-0.041,0.047-0.129,0.175-0.246
						c0.717-0.655,1.433-1.315,2.143-1.975c0.716-0.662,1.43-1.316,2.144-1.973c0.124-0.113,0.16-0.291,0.094-0.445l-0.069-0.16
						c-0.043-0.098-0.122-0.172-0.221-0.209l-0.896-0.336c-0.043-0.133-0.092-0.264-0.146-0.383
						c-0.068-0.176-0.161-0.371-0.278-0.578c-0.125-0.221-0.273-0.424-0.438-0.602c-0.351-0.385-0.771-0.701-1.252-0.943
						c-0.486-0.244-1.005-0.391-1.538-0.434c-0.545-0.049-1.106,0.031-1.677,0.223c-0.574,0.189-1.133,0.531-1.655,1.014
						c-0.381,0.346-0.7,0.73-0.951,1.143c-0.253,0.419-0.414,0.859-0.481,1.312c-0.065,0.459-0.025,0.923,0.119,1.382
						c0.146,0.463,0.413,0.907,0.792,1.319c0.291,0.317,0.604,0.562,0.926,0.724c0.323,0.159,0.653,0.258,0.988,0.291
						c0.157,0.014,0.312,0.014,0.471,0.008c-0.104,0.166-0.177,0.334-0.221,0.508C341.137,392.303,341.265,392.725,341.624,393.117z
						 M340.093,387.979c0.069-0.307,0.197-0.614,0.381-0.918c0.177-0.299,0.412-0.584,0.7-0.85c0.36-0.328,0.716-0.557,1.051-0.674
						c0.309-0.109,0.597-0.164,0.857-0.164l0.104,0.004c0.288,0.016,0.556,0.086,0.789,0.203c0.241,0.125,0.442,0.271,0.597,0.436
						c0.443,0.488,0.604,0.939,0.48,1.379c-0.138,0.5-0.514,1.035-1.114,1.586l-0.152,0.14c-0.298,0.274-0.613,0.489-0.938,0.644
						c-0.328,0.151-0.634,0.243-0.934,0.28c-0.282,0.035-0.549,0.015-0.795-0.065c-0.233-0.074-0.429-0.199-0.596-0.381
						c-0.217-0.236-0.354-0.484-0.425-0.765C340.031,388.551,340.03,388.27,340.093,387.979z"/>
				</g>
				<g>
					<path fill="#1C1B1B" d="M353.13,393.689c-0.306-0.334-0.624-0.728-0.945-1.166c-0.064-0.09-0.166-0.146-0.276-0.158
						c-0.111-0.006-0.219,0.027-0.302,0.102l-0.22,0.201c-0.131,0.121-0.165,0.314-0.079,0.473l0.513,0.994
						c-0.119,0.113-0.234,0.191-0.358,0.242l-3.721,1.553l2.146-4.029c0.04,0.015,0.084,0.033,0.133,0.062
						c0.114,0.07,0.229,0.156,0.345,0.258c0.146,0.131,0.273,0.236,0.392,0.328c0.151,0.115,0.362,0.107,0.501-0.021l0.221-0.202
						c0.082-0.076,0.129-0.183,0.128-0.293c-0.003-0.111-0.052-0.218-0.137-0.289c-0.384-0.332-0.775-0.718-1.17-1.146
						c-0.39-0.427-0.818-0.938-1.312-1.566c-0.067-0.086-0.168-0.139-0.275-0.148c-0.105-0.008-0.215,0.029-0.296,0.102
						l-0.219,0.201c-0.127,0.115-0.162,0.303-0.087,0.457l0.317,0.658c0.018,0.031,0.065,0.125-0.057,0.354l-2.921,5.769
						c-0.142,0.303-0.259,0.449-0.329,0.514c-0.021,0.019-0.152,0.123-0.737,0.373c-0.192,0.086-0.343,0.146-0.45,0.179
						c-0.101,0.026-0.182,0.045-0.2,0.071c-0.065-0.021-0.131-0.03-0.198-0.036c-0.011-0.019-0.022-0.039-0.036-0.064
						c-0.051-0.094-0.105-0.191-0.168-0.299c-0.07-0.121-0.166-0.248-0.285-0.377c-0.218-0.238-0.461-0.359-0.729-0.359
						c-0.244,0.002-0.469,0.092-0.647,0.256c-0.196,0.181-0.318,0.414-0.357,0.701c-0.03,0.215-0.004,0.539,0.301,0.867
						c0.302,0.332,0.722,0.52,1.25,0.555c0.048,0.004,0.096,0.006,0.145,0.006c0.451,0,0.957-0.114,1.546-0.35l7.335-2.939
						c0.572-0.235,0.805-0.272,0.932-0.281c0.093,0,0.172,0.021,0.244,0.068l0.525,0.326c0.15,0.092,0.339,0.074,0.467-0.043
						l0.224-0.199c0.082-0.076,0.128-0.18,0.128-0.291s-0.047-0.217-0.129-0.289C353.814,394.395,353.431,394.02,353.13,393.689z"/>
				</g>
				<g>
					<path fill="#1C1B1B" d="M364.578,413.594c0.096-0.062,0.16-0.164,0.174-0.276c0.015-0.113-0.021-0.228-0.1-0.312l-0.164-0.18
						c-0.102-0.107-0.256-0.15-0.396-0.111c-1.621,0.476-2.925,0.139-3.997-1.033c-0.941-1.03-1.326-2.057-1.174-3.135
						c0.154-1.096,0.86-2.225,2.099-3.356c0.61-0.56,1.25-0.996,1.903-1.3c0.649-0.303,1.282-0.479,1.888-0.528
						c0.587-0.05,1.147,0.021,1.682,0.217c0.533,0.197,0.99,0.508,1.396,0.951c0.507,0.555,0.819,1.146,0.927,1.766
						c0.104,0.605-0.003,1.193-0.329,1.791c-0.081,0.148-0.059,0.328,0.057,0.453l0.242,0.262c0.142,0.15,0.378,0.166,0.537,0.031
						c0.258-0.217,0.497-0.439,0.719-0.668c0.218-0.228,0.427-0.457,0.628-0.693c0.077-0.09,0.109-0.211,0.085-0.328
						c-0.066-0.344-0.146-0.637-0.237-0.893c-0.104-0.289-0.244-0.57-0.414-0.834c-0.166-0.258-0.373-0.539-0.639-0.859
						c-0.251-0.301-0.559-0.653-0.924-1.053c-0.606-0.662-1.322-1.166-2.129-1.496c-0.796-0.322-1.624-0.49-2.46-0.5h-0.093
						c-0.809,0-1.61,0.146-2.385,0.428c-0.809,0.293-1.544,0.74-2.188,1.33c-0.688,0.629-1.213,1.328-1.562,2.078
						c-0.354,0.754-0.54,1.547-0.551,2.353c-0.014,0.803,0.156,1.625,0.504,2.444c0.34,0.808,0.858,1.597,1.544,2.347
						c1.08,1.178,1.998,1.94,2.808,2.334c0.054,0.026,0.11,0.039,0.171,0.039c0.058,0,0.117-0.013,0.171-0.039
						c0.399-0.195,0.784-0.396,1.151-0.595S364.241,413.814,364.578,413.594z"/>
				</g>
				<g>
					<path fill="#1C1B1B" d="M369.71,422.598c0.135-0.121,0.166-0.319,0.076-0.479l-0.415-0.732
						c-0.079-0.141-0.089-0.188-0.048-0.182l2.977-2.723c0.553-0.507,0.899-1.052,1.032-1.619c0.134-0.578,0.067-1.146-0.206-1.689
						c-0.058-0.104-0.121-0.211-0.194-0.311c-0.072-0.099-0.146-0.193-0.221-0.271c-0.622-0.68-1.488-1.069-2.579-1.164l4.134-3.778
						c0.076-0.07,0.122-0.168,0.126-0.271c0.005-0.104-0.03-0.203-0.102-0.279l-0.303-0.332c-0.042-0.045-0.095-0.079-0.149-0.102
						c-0.826-0.311-1.414-0.639-1.747-0.973c-0.146-0.148-0.386-0.154-0.539-0.013l-0.166,0.152
						c-0.136,0.127-0.164,0.332-0.067,0.49c0.152,0.252,0.265,0.461,0.333,0.617c0.075,0.18,0.09,0.27,0.09,0.305
						c0.002,0.049-0.008,0.084-0.03,0.119c-0.029,0.049-0.088,0.127-0.204,0.231L364.505,416c-0.001,0-0.003,0.002-0.005,0.004
						c-0.018-0.012-0.041-0.025-0.068-0.043l-0.833-0.607c-0.149-0.108-0.355-0.098-0.49,0.029l-0.221,0.201
						c-0.082,0.074-0.13,0.182-0.126,0.295c0.001,0.111,0.053,0.217,0.138,0.289c0.146,0.125,0.335,0.305,0.563,0.539
						c0.239,0.24,0.524,0.543,0.854,0.906c0.332,0.36,0.608,0.674,0.829,0.932c0.21,0.25,0.372,0.451,0.483,0.609
						c0.063,0.09,0.164,0.149,0.275,0.162c0.118,0.014,0.224-0.023,0.306-0.101l0.22-0.201c0.134-0.121,0.166-0.315,0.081-0.475
						l-0.62-1.146c-0.013-0.022-0.021-0.043-0.028-0.059c0.013-0.014,0.028-0.029,0.052-0.051l2.903-2.654
						c0.557-0.037,1.019-0.008,1.375,0.078c0.343,0.08,0.655,0.273,0.931,0.574c0.256,0.277,0.373,0.578,0.36,0.914
						c-0.018,0.336-0.176,0.637-0.482,0.92l-2.851,2.609c-0.061,0.055-0.099,0.081-0.107,0.094c-0.025-0.01-0.076-0.029-0.15-0.074
						l-0.67-0.426c-0.15-0.097-0.345-0.078-0.474,0.041l-0.22,0.201c-0.079,0.071-0.125,0.176-0.126,0.282
						c-0.002,0.107,0.042,0.211,0.12,0.285c0.276,0.267,0.52,0.504,0.728,0.713c0.206,0.209,0.38,0.39,0.521,0.547
						c0.14,0.15,0.306,0.343,0.497,0.566c0.194,0.232,0.412,0.498,0.653,0.797c0.066,0.084,0.166,0.137,0.273,0.146
						c0.01,0,0.021,0,0.028,0c0.099,0,0.192-0.037,0.265-0.104L369.71,422.598z"/>
				</g>
				<g>
					<path fill="#1C1B1B" d="M373.114,426.32c0.134-0.123,0.166-0.32,0.077-0.479l-0.48-0.865c-0.023-0.043-0.034-0.067-0.04-0.073
						c0.013-0.021,0.046-0.066,0.131-0.146l4.738-4.336c0.158-0.146,0.17-0.393,0.025-0.551l-0.201-0.221
						c-0.093-0.103-0.229-0.148-0.363-0.119c-0.672,0.129-1.341-0.027-2.014-0.472c-0.147-0.1-0.345-0.084-0.478,0.035l-0.192,0.176
						c-0.137,0.123-0.168,0.324-0.076,0.482c0.271,0.475,0.292,0.666,0.292,0.707c0,0.088-0.073,0.201-0.205,0.322l-2.771,2.533
						c-0.142,0.129-0.229,0.118-0.39,0.002l-0.859-0.634c-0.149-0.108-0.355-0.1-0.492,0.025l-0.222,0.201
						c-0.082,0.076-0.13,0.184-0.127,0.297c0.002,0.111,0.053,0.217,0.139,0.289c0.146,0.125,0.332,0.305,0.559,0.531
						c0.232,0.233,0.517,0.536,0.847,0.897c0.332,0.363,0.607,0.674,0.822,0.926c0.209,0.246,0.369,0.447,0.479,0.604
						c0.063,0.092,0.164,0.149,0.275,0.164c0.016,0,0.029,0.002,0.043,0.002c0.097,0,0.189-0.037,0.263-0.103L373.114,426.32z"/>
				</g>
				<g>
					<path fill="#1C1B1B" d="M379.002,418.734c0.058,0.008,0.114,0.01,0.167,0.01c0.279,0,0.525-0.092,0.716-0.269
						c0.236-0.213,0.363-0.51,0.366-0.856c0.003-0.338-0.104-0.627-0.313-0.854c-0.212-0.233-0.498-0.364-0.892-0.379
						c-0.303,0-0.577,0.104-0.797,0.304c-0.232,0.215-0.359,0.483-0.371,0.799c-0.016,0.313,0.088,0.602,0.3,0.832
						C378.393,418.557,378.67,418.695,379.002,418.734z"/>
				</g>
				<g>
					<path fill="#1C1B1B" d="M376.084,428.721c-0.024-0.041-0.041-0.073-0.052-0.096c0.026-0.033,0.071-0.08,0.146-0.148
						l8.338-7.625c0.076-0.069,0.122-0.168,0.126-0.271c0.003-0.104-0.032-0.205-0.104-0.281l-0.292-0.317
						c-0.034-0.035-0.073-0.066-0.117-0.086c-0.734-0.357-1.304-0.683-1.689-0.968c-0.151-0.11-0.359-0.1-0.495,0.025l-0.181,0.166
						c-0.128,0.117-0.163,0.305-0.086,0.459c0.293,0.594,0.323,0.803,0.326,0.852c0.003,0.072-0.047,0.156-0.149,0.25l-7,6.406
						c-0.039,0.037-0.066,0.057-0.077,0.07c-0.021-0.011-0.056-0.027-0.102-0.06l-0.949-0.705c-0.147-0.108-0.356-0.1-0.495,0.027
						l-0.221,0.201c-0.077,0.07-0.123,0.172-0.126,0.277c-0.002,0.106,0.04,0.209,0.114,0.284l0.694,0.703
						c0.25,0.256,0.495,0.515,0.733,0.773c0.24,0.266,0.479,0.535,0.708,0.801l0.642,0.756c0.068,0.082,0.168,0.131,0.272,0.14
						c0.009,0,0.018,0,0.024,0c0.097,0,0.19-0.037,0.265-0.104l0.218-0.201c0.141-0.127,0.166-0.338,0.063-0.498L376.084,428.721z"
						/>
				</g>
				<g>
					<path fill="#1C1B1B" d="M383.096,437.055c0.152-0.143,0.167-0.379,0.032-0.537c-0.179-0.211-0.32-0.385-0.426-0.521
						c-0.091-0.113-0.101-0.166-0.086-0.184c0.039-0.056,0.126-0.154,0.312-0.322l8.155-7.463c0.076-0.07,0.122-0.168,0.127-0.271
						c0.003-0.104-0.034-0.205-0.104-0.281l-0.315-0.344c-0.029-0.031-0.064-0.059-0.103-0.078c-0.289-0.157-0.577-0.34-0.858-0.543
						c-0.275-0.198-0.558-0.438-0.836-0.705c-0.149-0.143-0.383-0.145-0.533-0.008l-0.22,0.201
						c-0.134,0.121-0.166,0.318-0.079,0.477c0.146,0.269,0.259,0.488,0.334,0.666c0.074,0.179,0.091,0.291,0.093,0.353
						c0.001,0.055-0.017,0.106-0.062,0.168c-0.049,0.07-0.147,0.19-0.352,0.373l-1.946,1.781c-0.242-0.564-0.623-1.132-1.141-1.693
						c-0.367-0.402-0.815-0.705-1.339-0.902c-0.48-0.18-0.985-0.27-1.501-0.27h-0.108c-0.562,0.016-1.118,0.133-1.651,0.346
						c-0.548,0.215-1.057,0.535-1.509,0.951c-0.763,0.697-1.217,1.562-1.353,2.576c-0.134,1.037,0.116,1.908,0.739,2.584
						c0.19,0.213,0.377,0.393,0.566,0.549c0.187,0.152,0.388,0.299,0.604,0.441c0.217,0.139,0.449,0.272,0.709,0.411
						c0.104,0.056,0.218,0.111,0.336,0.173l-0.207,0.188c-0.082,0.074-0.128,0.182-0.126,0.291c0.001,0.111,0.05,0.217,0.134,0.291
						c0.271,0.234,0.572,0.482,0.909,0.736c0.33,0.248,0.693,0.516,1.089,0.801c0.068,0.049,0.147,0.074,0.228,0.074
						c0.097,0,0.191-0.035,0.266-0.105L383.096,437.055z M379.59,431.473c0.032-0.317,0.137-0.643,0.312-0.967
						c0.178-0.33,0.436-0.646,0.763-0.945c0.327-0.303,0.662-0.532,1.023-0.707c0.349-0.166,0.693-0.27,1.028-0.309
						c0.1-0.012,0.196-0.018,0.291-0.018c0.213,0,0.419,0.028,0.613,0.09c0.264,0.082,0.49,0.227,0.677,0.432
						c0.324,0.354,0.521,0.67,0.585,0.941c0.063,0.268,0.063,0.506,0.001,0.707c-0.071,0.227-0.188,0.426-0.359,0.614
						c-0.192,0.222-0.382,0.412-0.563,0.58l-2.451,2.242c-0.128-0.045-0.301-0.123-0.536-0.268
						c-0.298-0.187-0.568-0.408-0.802-0.666c-0.229-0.25-0.395-0.523-0.489-0.814C379.587,432.092,379.557,431.793,379.59,431.473z"
						/>
				</g>
				<g>
					<path fill="#1C1B1B" d="M386.014,439.52c-0.026-0.047-0.037-0.075-0.041-0.082c0.012-0.018,0.042-0.065,0.129-0.146
						l4.739-4.334c0.158-0.146,0.169-0.393,0.024-0.551l-0.201-0.222c-0.091-0.102-0.229-0.145-0.362-0.12
						c-0.665,0.131-1.34-0.023-2.016-0.47c-0.148-0.096-0.345-0.08-0.477,0.037l-0.192,0.176c-0.136,0.123-0.168,0.326-0.075,0.484
						c0.271,0.467,0.291,0.656,0.291,0.705c0,0.086-0.072,0.201-0.205,0.32l-2.769,2.534c-0.143,0.13-0.233,0.117-0.393,0
						l-0.858-0.635c-0.152-0.11-0.359-0.1-0.496,0.029l-0.222,0.203c-0.082,0.076-0.128,0.184-0.125,0.297
						c0.003,0.111,0.056,0.217,0.141,0.289c0.148,0.123,0.332,0.301,0.558,0.528c0.234,0.236,0.518,0.537,0.85,0.898
						c0.331,0.363,0.604,0.67,0.819,0.924c0.207,0.246,0.367,0.443,0.48,0.604c0.062,0.092,0.164,0.149,0.274,0.164
						c0.016,0,0.028,0.002,0.043,0.002c0.098,0,0.19-0.037,0.264-0.104l0.22-0.199c0.134-0.122,0.166-0.319,0.077-0.479
						L386.014,439.52z"/>
				</g>
				<g>
					<path fill="#1C1B1B" d="M391.479,432.857c0.216,0.233,0.491,0.373,0.825,0.414c0.058,0.006,0.109,0.008,0.163,0.008
						c0.28,0,0.53-0.093,0.723-0.269c0.23-0.215,0.357-0.51,0.361-0.856c0.002-0.334-0.106-0.631-0.318-0.861
						c-0.218-0.23-0.494-0.355-0.889-0.371c-0.305,0-0.57,0.101-0.791,0.299c-0.231,0.211-0.361,0.49-0.378,0.806
						C391.162,432.34,391.265,432.619,391.479,432.857z"/>
				</g>
				<g>
					<path fill="#1C1B1B" d="M392.071,444.461c0.844-0.773,0.963-1.957,0.353-3.527c-0.229-0.563-0.36-1.02-0.391-1.352
						c-0.021-0.256,0.043-0.441,0.201-0.586c0.459-0.418,0.832-0.367,1.29,0.133c0.06,0.066,0.11,0.174,0.151,0.316
						c0.047,0.157,0.07,0.338,0.067,0.537c0,0.192-0.023,0.393-0.072,0.604c-0.045,0.195-0.112,0.357-0.197,0.484
						c-0.1,0.147-0.084,0.346,0.036,0.479l0.24,0.267c0.073,0.079,0.176,0.125,0.284,0.127c0.132-0.004,0.213-0.043,0.287-0.121
						l1.123-1.183c0.09-0.094,0.126-0.225,0.099-0.352c-0.139-0.644-0.492-1.277-1.049-1.887c-0.543-0.595-1.158-0.963-1.825-1.097
						c-0.713-0.143-1.354,0.033-1.884,0.521c-0.495,0.447-0.754,0.979-0.771,1.584c-0.014,0.555,0.147,1.248,0.498,2.125
						c0.406,0.975,0.411,1.654,0.017,2.018c-0.214,0.193-0.428,0.277-0.698,0.25c-0.268-0.021-0.513-0.16-0.752-0.422
						c-0.109-0.119-0.198-0.277-0.261-0.465c-0.065-0.203-0.095-0.418-0.085-0.648c0.006-0.246,0.05-0.502,0.131-0.77
						c0.073-0.26,0.197-0.523,0.364-0.779c0.099-0.147,0.083-0.346-0.037-0.477l-0.214-0.234c-0.072-0.082-0.178-0.127-0.287-0.127
						l0,0c-0.109,0-0.216,0.045-0.287,0.125l-1.433,1.562c-0.087,0.098-0.122,0.229-0.092,0.354c0.171,0.709,0.58,1.426,1.222,2.127
						c0.266,0.289,0.563,0.525,0.889,0.705c0.334,0.187,0.68,0.305,1.022,0.354c0.123,0.02,0.245,0.028,0.368,0.028
						c0.231,0,0.468-0.032,0.705-0.104C391.441,444.926,391.773,444.734,392.071,444.461z"/>
				</g>
				<g>
					<path fill="#1C1B1B" d="M402.301,439.711l-0.303-0.332c-0.041-0.045-0.091-0.08-0.149-0.102
						c-0.822-0.312-1.411-0.64-1.746-0.974c-0.146-0.146-0.384-0.151-0.537-0.012l-0.166,0.15c-0.138,0.125-0.167,0.33-0.07,0.489
						c0.157,0.261,0.27,0.47,0.335,0.623c0.073,0.168,0.087,0.267,0.089,0.302c0.001,0.063-0.017,0.102-0.021,0.112
						c-0.05,0.074-0.122,0.156-0.212,0.236l-6.997,6.404c-0.004,0.002-0.005,0.004-0.008,0.006
						c-0.019-0.013-0.042-0.025-0.068-0.045l-0.834-0.605c-0.149-0.109-0.355-0.098-0.492,0.027l-0.219,0.201
						c-0.084,0.075-0.13,0.184-0.128,0.295c0.003,0.112,0.053,0.219,0.138,0.291c0.148,0.125,0.336,0.305,0.564,0.537
						c0.237,0.241,0.522,0.545,0.854,0.905c0.332,0.363,0.609,0.677,0.828,0.935c0.212,0.25,0.375,0.451,0.482,0.606
						c0.063,0.092,0.164,0.152,0.275,0.164c0.111,0.01,0.223-0.022,0.306-0.1l0.222-0.201c0.133-0.119,0.165-0.314,0.081-0.473
						l-0.621-1.152c-0.012-0.021-0.021-0.037-0.026-0.053c0.013-0.015,0.029-0.029,0.052-0.052l2.901-2.653
						c0.555-0.035,1.018-0.01,1.375,0.076c0.343,0.082,0.657,0.274,0.931,0.575c0.256,0.279,0.375,0.58,0.359,0.914
						c-0.015,0.336-0.173,0.638-0.482,0.92l-2.851,2.609c-0.059,0.051-0.097,0.08-0.105,0.092c-0.028-0.01-0.078-0.028-0.149-0.071
						l-0.669-0.427c-0.147-0.094-0.341-0.078-0.473,0.041l-0.222,0.201c-0.08,0.072-0.126,0.174-0.128,0.283
						c-0.001,0.106,0.042,0.211,0.121,0.287c0.263,0.252,0.494,0.479,0.728,0.711c0.207,0.209,0.38,0.389,0.521,0.541
						c0.14,0.154,0.306,0.344,0.498,0.572c0.193,0.231,0.412,0.495,0.65,0.795c0.067,0.086,0.168,0.137,0.274,0.146
						c0.011,0,0.021,0.002,0.03,0.002c0.098,0,0.191-0.037,0.264-0.104l0.219-0.201c0.137-0.121,0.166-0.32,0.078-0.479L397.384,452
						c-0.046-0.08-0.066-0.133-0.081-0.148c0.008-0.01,0.02-0.021,0.03-0.032l2.978-2.724c0.553-0.504,0.898-1.049,1.032-1.621
						c0.136-0.58,0.067-1.146-0.205-1.688c-0.057-0.104-0.122-0.207-0.192-0.307c-0.073-0.103-0.147-0.195-0.224-0.273
						c-0.618-0.68-1.483-1.07-2.575-1.164l4.131-3.781C402.436,440.117,402.447,439.869,402.301,439.711z"/>
				</g>
			</g>
			<path fill="#1C1B1B" d="M347.657,342.037c-0.287-2.975-1.977-5.137-4.054-7.072c-2.494-2.326-5.168-3.086-8.394-1.332
				c-1.745,0.947-3.662,1.895-5.589,2.125c-5.638,0.676-11.315,1.021-16.982,1.43c-1.688,0.121-3.395,0.019-5.173,0.019
				c0.235-9.847,0.468-19.476,0.7-29.197c0.735,0,1.266,0.003,1.794,0c8.245-0.016,16.49-0.024,24.735-0.055
				c0.887-0.004,1.782-0.041,2.652-0.195c2.018-0.352,2.593-1.172,1.859-3.114c-0.643-1.697-1.381-3.49-2.554-4.822
				c-2.312-2.627-4.648-3.908-8.448-2.467c-3.275,1.242-6.821,1.938-10.309,2.369c-3.132,0.383-6.349,0.08-9.566,0.08
				c0.202-8.992,0.411-18.146,0.621-27.438c6.677,0,13.126,0,19.634,0c0.181,1.774,0.283,9.364,0.543,10.995
				c0.177,1.093,0.404,2.355,1.872,2.438c1.436,0.076,2.207-0.969,2.479-2.147c0.369-1.621,0.672-7.933,0.771-10.666
				c0.016-0.355,0.024-0.65,0.029-0.865c0.047-1.729,0.091-3.453,0.137-5.18c0.378-14.574,0.688-30.542,1.075-45.218
				c0.192-7.275-8.604-24.512-27.885-24.512c-16.697,0-25.671,11.464-27.86,20.385c-0.342,1.38-0.52,2.7-0.535,3.906
				c-0.232,15.833-0.814,33.145-1.23,48.973c-0.049,1.834-0.021,11.088,0.084,12.918c0.074,1.215,0.393,2.459,1.893,2.625
				c1.585,0.174,2.377-0.906,2.799-2.222c0.375-1.162,0.571-9.793,0.881-11.142c6.754,0,13.418,0,20.127,0
				c-0.27,9.214-0.533,18.32-0.8,27.451c-0.485,0.058-0.776,0.125-1.063,0.115c-8.455-0.316-16.95,0.842-25.383-0.654
				c-0.448-0.08-1.463,0.527-1.436,0.685c0.395,2.358,0.626,4.821,1.52,7.004c0.612,1.498,2.295,2.209,4.196,2.043
				c5.548-0.485,11.104-0.885,16.662-1.246c1.747-0.114,3.507-0.021,5.42-0.021c-0.233,9.846-0.461,19.479-0.688,29.18
				c-11.706,0-23.141,0.08-34.571-0.08c-1.78-0.025-3.589-1.031-5.31-1.768c-2.496-1.064-4.879-2.4-7.406-3.387
				c-0.635-0.25-1.823-0.486-2.446,0.646c-0.003,1.207,0.483,1.719,1.05,2.168c6.744,5.326,12.486,11.631,17.987,18.183
				c2.515,2.993,5.017,5.997,7.62,8.913c1.045,1.164,2.445,1.66,4.029,0.921c1.51-0.711,2.115-1.957,2.244-3.556
				c0.238-2.976-0.947-5.463-2.717-7.681c-1.566-1.961-3.318-3.774-5.126-5.809c2.453-0.133,4.742-0.352,7.036-0.367
				c18.918-0.137,37.836-0.223,56.755-0.379c1.578-0.014,3.152-0.41,4.724-0.662C347.377,344.143,347.78,343.285,347.657,342.037z
				 M309.772,204.232c11.493,1.296,20.358,11.261,20.191,23.237l-0.157,7.508l-20.511-0.286L309.772,204.232z M309.228,241.179
				l20.509,0.284l-0.252,20.782c-0.036,2.557-2.129,4.625-4.652,4.59l-15.921-0.224L309.228,241.179z M304.23,266.566l-15.694-0.236
				c-2.522-0.035-4.558-2.158-4.522-4.717l0.254-20.781l20.279,0.301L304.23,266.566z M304.617,234.646l-20.281-0.302l0.16-7.504
				c0.164-11.98,9.076-21.678,20.598-22.653L304.617,234.646z"/>
		</g>
	</g>
</g>
</svg>
