<?xml version="1.0" encoding="utf-8"?>
<!-- Generator: Adobe Illustrator 20.1.0, SVG Export Plug-In . SVG Version: 6.00 Build 0)  -->
<svg version="1.1" id="圖層_1" xmlns="http://www.w3.org/2000/svg" xmlns:xlink="http://www.w3.org/1999/xlink" x="0px" y="0px"
	 viewBox="0 0 467.1 200.2" style="enable-background:new 0 0 467.1 200.2;" xml:space="preserve">
<style type="text/css">
	.st0{fill-rule:evenodd;clip-rule:evenodd;fill:#EBAA5B;}
	.st1{fill:#EBAA5B;}
</style>
<g>
	<g>
		<path class="st0" d="M142.7,142.9c-1.5,0-2.7,0-3.9,0c-21.7,0.4-43.4,0.8-65.1,1.1c-3.6,0.1-4-0.3-4.9-3.9
			c-0.4-1.5,0.7-2.6,2.1-2.3c1.5,0.1,3.1,0.4,4.6,0.4c11.9,0,23.9-0.1,35.8-0.2c0.3,0,0.6,0,1-0.1c0-2.8,0-5.5,0-8.4
			c-0.3,0-0.7-0.1-1.1,0c-6.8,0.2-13.6,0.4-20.4,0.7c-3.2,0.1-5.1-2.2-4.3-5.3c0.1-0.2,0.6-0.5,1-0.5c8.1,0,16.3,0,24.4,0
			c0.1,0,0.3,0,0.6-0.1c0-2.8,0-5.7,0-8.4c-5.5,0-11.2,0-16.8,0c-0.1,1.1-0.2,1.9-0.4,2.8c-0.1,0.5-0.3,1-0.6,1.4
			c-0.4,0.4-1,0.8-1.5,0.7c-0.4-0.1-1-0.7-1.1-1.1c-0.2-1.4-0.3-2.8-0.2-4.2c0.5-9.3,0.9-18.7,0.6-28c-0.1-1.9-0.3-3.8-0.4-5.7
			c0-0.4,0.2-1.1,0.5-1.3c0.2-0.2,1,0.1,1.2,0.3c1.1,1.3,2.6,1.1,4.1,1.1c10.7-0.1,21.5-0.2,32.2-0.2c1.5,0,2.8-0.4,4.1-1.1
			c1.2-0.7,1.9-0.6,2.8,0.5c1.4,1.8,1.8,3.9,1.1,5.9c-1.5,4.4-1.2,8.9-1.4,13.4c-0.3,4.9-0.2,9.7-0.4,14.6c0,1-0.2,2.1-0.7,3
			c-0.3,0.5-1.2,1-1.7,1c-0.4,0-0.9-0.9-1.1-1.5c-0.2-0.5-0.2-1.2-0.3-1.8c-5.5,0-11,0-16.7,0c0,3,0,5.8,0,8.6
			c0.1,0,0.3,0.1,0.5,0.1c4.4-0.1,8.9-0.1,13.3-0.2c1.9,0,3.7-0.6,5.5-1.4c3.1-1.4,7.6,1.9,7.3,5.3c0,0.4-0.4,0.8-0.8,1
			c-0.6,0.2-1.3,0.2-1.9,0.3c-7.5,0.1-15.1,0.1-22.6,0.2c-0.4,0-0.8,0-1.4,0c0,2.9,0,5.6,0,8.4c0.3,0,0.5,0,0.8,0
			c8.9-0.1,17.8-0.2,26.7-0.3c2,0,4-0.2,6-0.5c1.1-0.2,2.2-0.6,3.1-1.1c1.9-1.1,3.4-0.5,4.9,0.7c1.4,1.1,2.1,2.4,2.2,4.2
			c0.1,1.1-0.4,1.6-1.4,1.7c-1.9,0.1-3.9,0.2-5.8,0.2c-2,0-4,0-6,0L142.7,142.9z M134,86.7c-12.7,0.2-25.2,0.4-37.9,0.6
			c0,3.2,0,6.2,0,9.2c5.6,0,11.2,0,17,0c-0.2-1.9-0.5-3.5-0.7-5.2c-0.1-0.8-0.2-1.6,0.8-1.8c1.7-0.4,3.6,1.2,3.6,2.9
			c0,1.3,0,2.9,0,4.3c0.9-0.1,1.8-0.1,2.7-0.2c1.9-0.2,3.8-0.6,5.8-0.8c1.5-0.2,2.2,0.3,2.5,1.8c0.2,0.9,0.3,1.9,0.4,2.9
			c0.1,0.7-0.2,1.2-1,1.2c-1.4,0-2.9,0.2-4.3,0.2c-2.1,0-4.3,0-6.6,0c0,3.3,0,5.9,0,8.6c3.4,0,6.9,0,10.4,0c2,0,4.1-1.1,6.4,0.2
			C133.3,102.5,133.6,94.7,134,86.7z M95.7,110.7c5.7,0,11.3,0,17.1,0c0-3.2,0-6.1,0-9c-5.7,0-11.3,0-17.1,0
			C95.7,104.8,95.7,107.8,95.7,110.7z"/>
		<g>
			<g>
				<rect x="114.7" y="12.9" class="st1" width="0.8" height="9.3"/>
			</g>
			<g>
				<path class="st1" d="M142.5,43.1c-0.1,0-14-3.3-23.6-13.7c0,0-0.1-0.1-0.2,0c0,0,0,0.1,0,0.1c0,0,0,0,0,0c0,0,0,0,0,0
					c0,0,0,0,0,0.1c7.3,10.7,12.4,13.7,12.5,13.8c0,0,0,0,0.1,0h11.2c0.1,0,0.1,0,0.1-0.1C142.6,43.2,142.6,43.1,142.5,43.1z"/>
				<g>
					<path class="st1" d="M114.9,23.5c0-0.1,0-0.2,0-0.3C114.9,23.3,114.9,23.5,114.9,23.5C114.9,23.5,114.9,23.5,114.9,23.5z"/>
				</g>
				<path class="st1" d="M111.3,29.4C111.3,29.4,111.3,29.4,111.3,29.4C111.3,29.4,111.3,29.3,111.3,29.4c-0.1-0.1-0.2-0.1-0.2-0.1
					c-4,5-10.2,8.5-14.8,10.5c-4.9,2.2-9,3.3-9,3.3c-0.1,0-0.1,0.1-0.1,0.1c0,0.1,0.1,0.1,0.1,0.1h11.4c0,0,0,0,0.1,0
					C98.8,43.3,103.9,40.2,111.3,29.4C111.3,29.4,111.3,29.4,111.3,29.4C111.3,29.4,111.3,29.4,111.3,29.4z"/>
				<path class="st1" d="M121,43.1l-4.3-14.4c0,0,0,0-0.1,0c0,0,0,0,0,0c0,0-0.1,0-0.1,0c-0.5,0.2-0.9,0.2-1.4,0.2
					c-0.6,0-1.1-0.1-1.6-0.3l0,0c0,0,0,0-0.1,0c0,0-0.1,0-0.1,0c0,0-0.1,0-0.1,0.1L109,43.2c0,0,0,0.1,0,0.1c0,0,0.1,0,0.1,0h11.7
					c0,0,0.1,0,0.1,0C121,43.3,121,43.2,121,43.1L121,43.1L121,43.1z"/>
				<g>
					<ellipse class="st1" cx="115.1" cy="24.5" rx="2.9" ry="2.8"/>
				</g>
			</g>
			<path class="st1" d="M143.2,49.4c-1.9,0-54.7,0-56.6,0c-2.7,0-2.7-3.3-2.7-3.3h62C145.9,46,145.9,49.4,143.2,49.4z"/>
			<path class="st1" d="M76.3,73.7c2.4,0,74.5,0,77.3,0c2.3,0,2.3,4.1,2.3,4.1H74.1C74.1,77.8,74,73.7,76.3,73.7z"/>
			<rect x="77.6" y="69.5" class="st1" width="74.6" height="2"/>
			<g>
				<g>
					<path class="st1" d="M99.4,55.6c0.6,0,1.1-0.1,1.5-0.1c0.3,0,0.7-0.1,1-0.1v-4.7h-2.6v4.7C99.3,55.4,99.4,55.5,99.4,55.6z"/>
					<path class="st1" d="M100.4,62.1l-0.3,0c-0.3,0-0.6,0-0.8,0.1v5.8h2.6v-4.8C101.3,63,100.8,62.7,100.4,62.1z"/>
				</g>
				<g>
					<path class="st1" d="M130,61.7l-0.3,0.1c-0.4,0.1-0.8,0.1-1.2,0.2v6.1h2.4v-5.5C130.6,62.3,130.3,62.1,130,61.7z"/>
					<path class="st1" d="M129.9,55.4c0.4-0.1,0.7-0.1,1.1-0.2v-4.5h-2.4v5C129.1,55.6,129.5,55.5,129.9,55.4z"/>
				</g>
				<g>
					<path class="st1" d="M108.2,65.8c-0.7-0.1-1.6-3.8-2.7-5.6c0.2-0.7,0.1-1.8-0.5-2.5c0.7,0.1,1.2,1,1.2,1
						c0.7,1.2,2.8,0.4,2.8,0.4c-1,0.2-1.8-1.2-1.8-1.2c-1.2-1.8-2.7-0.7-2.7-0.7c-1.5-1.3-3-0.5-6-0.5c-0.5-0.3-1.1-1-1.1-1
						c0,0,0,0,0,0c0.3,0.2,0.7,0.1,0.7,0.1c-0.4-0.1-1.3-1.1-1.3-1.1l0,0c0.3,0.1,0.7,0.1,0.7,0.1c-0.3-0.1-0.4-0.6-0.4-0.6
						c-0.1-0.4-0.4-0.6-0.6-0.7c0.3,0,0.5-0.1,0.5-0.1c-0.2,0-0.6-0.5-0.6-0.5c-0.8-1.1-1.7-0.9-1.7-0.9c0.1-0.2,0.2-0.3,0.2-0.3
						c-0.5-0.1-0.9,0-1.1,0.1c-0.3-0.3-0.8-0.3-0.8-0.3c0.2,0.1,0.3,0.3,0.3,0.5C93,51.8,92.5,52,92.5,52c0.3,0,0.5,0.3,0.6,0.4
						c-0.2,0.2-0.2,0.4-0.2,0.4c-0.7,1.3-0.6,1.9-1.1,2.7c-0.2,0.4,0.6,0.8,1,0.5c0.6-0.5,1.1-1,1.7-1.1c0.3,0.5,0.5,1.1,0.4,1.7
						c-0.8,1.7,0.1,2.7-0.1,3.7c-0.9,0.8-1.6,2-2.1,2.4c0,0,0,0,0,0c-0.1,0-0.1,0.1-0.2,0.1c0,0,0,0,0,0c-0.2,0.3,0.1,0.5,0.1,0.5
						s1.6,0.9,2.7,2.7c-0.2,1.5,2.1,0.4,0.8-0.7c-1.1-0.9-0.8-1.8-1.4-2.6l2.1-1.4c0,0,0,0,0.1-0.1c1.2,0,2.7-0.2,4.1-0.3
						c0.7,2.3,4.7,1.2,5.8,5.2C108.6,69,109.1,65.9,108.2,65.8z"/>
				</g>
				<path class="st1" d="M137.3,64.8c-0.7,0-1.7-3.6-2.9-5.2c0.2-0.7,0-1.7-0.6-2.4c0.6,0.1,1.1,0.9,1.1,0.9
					c0.7,1.1,2.6,0.2,2.6,0.2c-0.8,0.3-1.7-1-1.7-1c-1.3-1.7-2.5-0.4-2.5-0.4c-1.5-1.2-2.7-0.2-5.4,0.1c-0.5-0.2-1.1-0.9-1.1-0.9
					c0,0,0,0,0,0c0.3,0.1,0.7,0,0.7,0c-0.4,0-1.2-1-1.2-1c0,0,0,0,0,0c0.3,0.1,0.7,0,0.7,0c-0.3,0-0.4-0.5-0.4-0.5
					c-0.1-0.4-0.4-0.6-0.6-0.6c0.3,0,0.4-0.2,0.4-0.2c-0.2,0-0.6-0.5-0.6-0.5c-0.8-1-1.6-0.8-1.6-0.8c0.1-0.2,0.1-0.3,0.1-0.3
					c-0.5-0.1-0.8,0.1-1,0.2c-0.3-0.3-0.8-0.3-0.8-0.3c0.2,0.1,0.3,0.3,0.3,0.4c-0.3,0-0.7,0.2-0.7,0.2c0.3,0,0.5,0.2,0.6,0.4
					c-0.1,0.2-0.2,0.4-0.2,0.4c-0.5,1.3-0.4,1.9-0.7,2.7c-0.1,0.4,0.6,0.7,0.9,0.4c0.5-0.5,0.9-1.1,1.4-1.3c0.3,0.5,0.5,1.1,0.5,1.6
					c-0.6,1.8,0.3,2.6,0.2,3.6c-0.7,0.9-1.2,2.1-1.7,2.5c0,0,0,0,0,0c0,0-0.1,0.1-0.1,0.1c0,0,0,0,0,0c-0.2,0.3,0.1,0.5,0.1,0.5
					s1.5,0.8,2.7,2.4c0,1.5,2,0.2,0.7-0.8c-1-0.8-0.9-1.7-1.5-2.4l1.8-1.6c0,0,0-0.1,0.1-0.1c1.1-0.2,2.4-0.4,3.6-0.6
					c0.8,2.2,4.3,0.7,5.6,4.6C137.9,67.9,138.2,64.8,137.3,64.8z"/>
			</g>
			<path class="st1" d="M116.3,13.1c0,0,2.2-1.3,4.1,0.6c0,0,1.9,1.5,3.9-0.5c0,0-1.3,4.9-5.8,3.3c0,0-1.2-0.5-2.2,0.1"/>
		</g>
	</g>
	<path class="st0" d="M184.6,87c1.9-1.2,3.5-0.5,5.1,0.7c1.4,1.1,2.2,2.5,2.3,4.3c0.1,1.1-0.4,1.7-1.5,1.7c-2,0.1-4,0.2-6,0.2
		c-2.1,0-4.2,0-6.2,0c-0.3,8.7-0.7,17.4-1.1,26.4c1.5-0.3,2.9-0.5,4.3-0.8c0.8-0.2,1.5-0.6,2.2-1c1.2-0.6,2.4-0.5,3.2,0.5
		c1,1.3,1.9,2.8,2.5,4.3c0.5,1.3-0.1,2.1-1.5,2.1c-2.2,0.1-4.4,0-6.6,0c-1.3,0-2.6,0-4,0c-0.3,9.5-0.6,18.8-0.8,28.6
		c5-2.5,9.8-4.9,14.7-7.4c-1.1,2.8-1.9,5.5-4.3,7.1c-5.6,3.7-11.2,7.2-16.9,10.8c-1.5,0.9-2.9,1.8-4.4,2.8c-0.8,0.5-1.3,0.5-1.8-0.3
		c-1.2-2.1-2.4-4.3-3.5-6.5c-0.2-0.3-0.2-0.8-0.2-1.2c-0.1-0.8,0.4-1.2,1.1-0.9c1.7,0.7,3.2,0.2,4.8-0.4c2.2-0.8,4.4-1.7,6.6-2.7
		c0.4-0.2,0.8-0.8,0.8-1.2c0.2-6.9,0.4-13.9,0.5-20.8c0.1-2.6,0-5.2,0-7.9c-1.7,0.1-3.6,0.1-5.4,0.4c-2.6,0.4-4.4-0.5-4.7-3.7
		c-0.3-2.6-0.3-2.4,2.3-2.2c2.6,0.2,5.3,0.1,8.2,0.1c0.2-8.7,0.3-17.4,0.5-26.2c-1.6,0-2.6,0-8.1,0c-1.4,0-4,0.2-5.1-4
		c-0.6-2.3,1.6-2.2,3-1.9c2.3,0.1,4.6,0.1,6.2,0.1C181.3,88.3,183.6,87.6,184.6,87z"/>
	<path class="st0" d="M244.4,184.4c-0.2-2.1-1.4-3.7-2.9-5c-1.8-1.7-3.7-2.2-6-0.9c-1.2,0.7-2.6,1.3-4,1.5c-4,0.5-8.1,0.7-12.1,1
		c-1.2,0.1-2.4,0-3.7,0c0.2-7,0.3-13.9,0.5-20.8c0.5,0,0.9,0,1.3,0c5.9,0,11.7,0,17.6,0c0.6,0,1.3,0,1.9-0.1
		c1.4-0.3,1.8-0.8,1.3-2.2c-0.5-1.2-1-2.5-1.8-3.4c-1.6-1.9-3.3-2.8-6-1.8c-2.3,0.9-4.9,1.4-7.3,1.7c-2.2,0.3-4.5,0.1-6.8,0.1
		c0.1-6.4,0.3-12.9,0.4-19.5c4.8,0,9.4,0,14,0c0.1,1.3,0.2,6.7,0.4,7.8c0.1,0.8,0.3,1.7,1.3,1.7c1,0.1,1.6-0.7,1.8-1.5
		c0.3-1.2,0.5-5.7,0.6-7.6c0-0.3,0-0.5,0-0.6c0-1.2,0.1-2.5,0.1-3.7c0.3-10.4,0.5-21.8,0.8-32.2c0.1-5.2-6.1-17.5-19.9-17.5
		c-11.9,0-18.3,8.2-19.9,14.5c-0.2,1-0.4,1.9-0.4,2.8c-0.2,11.3-0.6,23.6-0.9,34.9c0,1.3,0,7.9,0.1,9.2c0.1,0.9,0.3,1.8,1.3,1.9
		c1.1,0.1,1.7-0.6,2-1.6c0.3-0.8,0.4-7,0.6-7.9c4.8,0,9.6,0,14.3,0c-0.2,6.6-0.4,13.1-0.6,19.6c-0.3,0-0.6,0.1-0.8,0.1
		c-6-0.2-12.1,0.6-18.1-0.5c-0.3-0.1-1,0.4-1,0.5c0.3,1.7,0.4,3.4,1.1,5c0.4,1.1,1.6,1.6,3,1.5c4-0.3,7.9-0.6,11.9-0.9
		c1.2-0.1,2.5,0,3.9,0c-0.2,7-0.3,13.9-0.5,20.8c-8.3,0-4.2,0.1-12.3-0.1c-6.6,0.1-8.7-0.3-15-1.2c-0.3,0-1.1,0.3-1.1,0.4
		c0.2,1.7,0.2,3.5,0.7,5.1c0.4,1.1,1.7,2,3.1,2c4-0.1,8-0.2,12-0.3c13.1-0.5,27-0.2,40.4-0.3c1.1,0,2.2-0.3,3.4-0.5
		C244.2,185.9,244.5,185.3,244.4,184.4z M217.4,86.2c8.2,0.9,14.5,8,14.4,16.6l-0.1,5.3l-14.6-0.2L217.4,86.2z M217,112.5l14.6,0.2
		l-0.2,14.8c0,1.8-1.5,3.3-3.3,3.3l-11.3-0.2L217,112.5z M213.4,130.6l-11.2-0.2c-1.8,0-3.2-1.5-3.2-3.4l0.2-14.8l14.5,0.2
		L213.4,130.6z M213.7,107.9l-14.5-0.2l0.1-5.3c0.1-8.5,6.5-15.4,14.7-16.1L213.7,107.9z"/>
	<path class="st0" d="M300.6,151.1c-1.8-0.2-3.7-0.3-5.5-0.5c-1.8-0.2-3.5-0.4-5.2-0.8c-3.4-0.8-5.2-2.8-5.4-6.4
		c-0.2-3.7-0.2-7.4-0.2-11.1c0.2-10.5,0.4-21,0.6-31.4c0.2-9.1,0.3-18.2,0.5-27.3c0-2.6,0.1-5.2-1.3-7.5c-0.2-0.3-0.1-0.8,0.1-1
		c0.1-0.2,0.6-0.2,0.9-0.1c1.3,0.5,2.7,0.9,4,1.5c1,0.5,1.5,1.6,1.4,2.8c-0.3,5.9-0.8,11.7-0.9,17.6c-0.4,16-0.7,31.9-1.1,47.9
		c-0.1,6.2,1.2,7.4,7,8.7c5,1.1,10.1,0.6,15.2,0.4c3.6-0.2,7.1-0.8,10.6-1.4c2.4-0.4,3.8-1.7,4.4-4.1c0.3-1.5,0.8-3,1.5-4.6
		c0.7,1.5,1.5,2.9,1.9,4.5c0.6,2.4,1.2,4.8,1.4,7.3c0.2,2.9-0.7,3.9-3.6,4.3c-3.7,0.5-7.5,0.9-11.2,1.3c-0.5,0.1-0.9,0.2-1.4,0.2
		C309.8,151.1,305.2,151.1,300.6,151.1z"/>
	<path class="st0" d="M267.8,88.9c0.6,0.1,0.7,0.1,0.8,0.1c2.4,0.6,2.5,0.8,1.8,3.1c-2.7,9.1-6.4,17.8-12.2,25.4
		c-0.8,1.1-1.8,2.1-2.8,3.1c-0.3,0.3-0.6,0.6-1,0.8c-1.9,1.4-3.8,1.4-5,0.2c-1.1-1.1-0.9-3.2,0.5-4.8c0.5-0.6,1-1.2,1.6-1.7
		c6.1-5.1,10.2-11.6,14-18.4c0.9-1.6,1.7-3.4,2.6-5C268.8,90.8,269.2,90,267.8,88.9z"/>
	<g>
		<path class="st1" d="M268.7,172.6l-1.8-1.1c-0.6-0.4-1.7-1.2-1.7-2.3c0-0.9,0.4-2,2.2-2c1.7,0,2.3,1,2.6,2.2l0,0.1l0.1,0.1
			c0.2,0.2,0.4,0.3,0.7,0.3c0.3,0,0.6-0.1,0.8-0.4l0.1-0.1v-0.2c0-1-0.2-2.3-0.4-3l-0.1-0.4h-0.4c-0.1,0-0.4,0-0.7-0.1
			c-0.6-0.2-1.5-0.3-2.3-0.3c-3.1,0-5.2,1.8-5.2,4.5c0,1.7,1,3.2,2.7,4.4l2.2,1.4c1.5,1,1.6,1.9,1.6,2.7c0,1-0.6,2.1-2.3,2.1
			c-1.7,0-2.8-1-3.4-3l-0.1-0.2c-0.1-0.2-0.4-0.3-0.6-0.3c-0.3,0-0.6,0.1-0.8,0.4l-0.1,0.2l0,0.2c0,1,0.3,2.8,0.7,3.4l0.1,0.1
			l0.1,0.1c0.6,0.3,1.9,0.9,3.8,0.9c3.2,0,5.4-1.9,5.4-4.8C271.8,175.4,270.8,173.9,268.7,172.6z"/>
		<path class="st1" d="M278.5,179.6c-0.2,0-0.3,0.1-0.5,0.2c-0.1,0-0.2,0.1-0.3,0.1c-0.1,0.1-0.3,0.1-0.4,0.1c-0.8,0-1.1-0.3-1.1-2
			v-4.3h2.6l0.1-0.1c0.4-0.2,0.4-0.7,0.4-0.9c0-0.4-0.1-0.8-0.4-1l-0.1-0.1h-2.6v-1l-0.1-0.1c-0.3-0.5-0.9-0.5-1.2-0.4l-0.2,0.1
			l-0.1,0.2c-0.2,0.4-0.6,1-0.8,1.2c-0.1,0.1-0.6,0.4-1.3,0.6l-0.2,0.1l-0.1,0.2c-0.1,0.2-0.2,0.4-0.1,0.6c0,0.3,0.2,0.5,0.4,0.6
			l0.1,0.1h0.7c0,0,0,0.1,0,0.1v5.2c0,0.7,0,3,2.9,3c1.6,0,2.6-1,2.8-1.2l0.1-0.1l0-0.1c0.1-0.3,0-0.6-0.1-0.8
			C278.9,179.7,278.7,179.6,278.5,179.6z"/>
		<path class="st1" d="M288.9,180.6c0-0.5-0.3-0.9-0.7-0.9c-0.2,0-0.4,0.1-0.5,0.2l0,0c0,0-0.2,0.1-0.3,0.1c-0.2,0-0.2,0-0.3-0.1
			c-0.1-0.1-0.3-0.4-0.2-1.3l0.1-4c0-1.1-0.2-1.9-0.8-2.4c-0.5-0.5-1.2-0.8-2.2-0.8c-1.9,0-4.8,1.8-4.8,3.4c0,0.5,0.4,0.9,0.9,0.9
			c0.5,0,1.2-0.2,1.6-0.5c0.4-0.3,0.4-0.8,0.4-1.2c0-0.3,0.5-0.5,0.9-0.5c0.4,0,0.6,0.1,0.8,0.3c0.3,0.3,0.3,0.8,0.3,1.1l0,1.1
			c0,0.1,0,0.1,0,0.1l-2.7,1c-1.4,0.5-2.3,1.1-2.3,2.5c0,0.8,0.3,1.5,0.9,2c0.5,0.4,1.2,0.7,2,0.7c0.7,0,1.3-0.3,1.8-0.6l0.1,0
			c0.1-0.1,0.3-0.2,0.4-0.2c0,0,0.1-0.1,0.1-0.1c0,0,0,0,0,0c0.5,0.6,1.1,0.9,1.9,0.9C287.6,182.1,288.9,181.2,288.9,180.6z
			 M282,179.2c0-0.5,0.2-0.7,1.6-1.2c0.2-0.1,0.3-0.1,0.4-0.1l0,1.1c0,0.4,0,0.5-0.1,0.6c-0.1,0.1-0.7,0.4-1,0.4
			C282,180,282,179.2,282,179.2z"/>
		<path class="st1" d="M298.7,171.7l-0.1-0.1l-0.2,0c-0.7,0-1.2,0.1-1.7,0.1c-0.6,0-1.3,0-2-0.1l-0.1,0l-0.1,0
			c-0.3,0.1-0.5,0.4-0.5,0.7c0,0.3,0.1,0.7,0.3,0.9l0.1,0.1l0.8,0.1c0,0,0,0,0,0c-0.1,0.3-0.3,0.9-0.7,1.9l-0.8,1.8
			c-0.1,0.2-0.2,0.4-0.3,0.6c0-0.1-0.1-0.2-0.1-0.3l-0.8-2.3c-0.3-0.9-0.5-1.4-0.6-1.7l0.7-0.1l0.1-0.1c0.2-0.2,0.4-0.5,0.3-0.9
			c0-0.3-0.2-0.6-0.5-0.7l-0.1,0l-0.1,0c-1.6,0.1-2.7,0.1-4.1,0l-0.1,0l-0.1,0c-0.3,0.1-0.4,0.3-0.5,0.7c0,0.3,0,0.6,0.3,0.9
			l0.1,0.1l0.7,0.1c0.4,0.1,0.5,0.3,0.9,1.3l1.8,5c0.3,0.8,0.4,1,0.4,1.4c0,0.2-0.1,0.5-0.2,0.8c-0.2,0.5-0.6,1.4-1.3,2.4
			c-0.1,0.1-0.1,0.2-0.3,0.2h-0.4c-0.9,0-1.5,0.6-1.5,1.5c0,0.9,0.6,1.5,1.6,1.5c0.9,0,1.5-0.5,2-1.4c1.1-2.4,2.9-6.4,3.7-8l1.3-2.6
			c0.8-1.6,1.1-2,1.5-2.1l0.5-0.1l0.1-0.1c0.2-0.2,0.3-0.5,0.3-0.8C299.1,172.1,298.9,171.8,298.7,171.7z"/>
		<path class="st1" d="M319.8,177.6l-0.1-0.2c-0.1-0.2-0.3-0.3-0.6-0.4c-0.3-0.1-0.6,0-0.8,0.1l-0.1,0.1l-0.1,0.2
			c-0.5,1.3-1.7,2.9-4.2,2.9c-3.8,0-6.2-2.7-6.2-6.9c0-4.7,3-6.4,5.9-6.4c2.3,0,3.7,0.9,4.1,2.9l0,0.2l0.1,0.1
			c0.2,0.2,0.5,0.3,0.8,0.2c0.3,0,0.5-0.2,0.6-0.4l0.1-0.2l0-0.2c-0.2-1.3-0.3-2.8-0.3-3.3l0-0.6l-0.6,0.1c-0.1,0-0.2,0-0.4-0.1l0,0
			c-1.2-0.3-3-0.6-4.2-0.6c-2.5,0-4.8,0.7-6.5,2.1c-2,1.5-3.1,3.9-3.1,6.5c0,2.8,1.2,5.2,3.5,6.7c1.6,1.1,3.6,1.6,6,1.6
			c1.6,0,3.3-0.4,3.8-0.6c0.2-0.1,0.5-0.2,0.7-0.2l0.2,0l0.1-0.2c0.4-0.5,1-2.1,1.2-3.4L319.8,177.6z"/>
		<path class="st1" d="M331.3,180.3l-0.1-0.1l-0.8-0.1c-0.2,0-0.3-0.1-0.3,0c-0.1-0.1-0.1-0.9-0.1-1.4v-3.8c0-2.2-1.3-3.5-3.5-3.5
			c-0.9,0-1.8,0.3-2.6,0.8v-4.2c0-0.8,0-1.8,0.1-2.5l0-0.5l-0.1-0.1c-0.1-0.3-0.4-0.4-0.7-0.4H323l-0.1,0.1
			c-0.8,0.4-1.8,0.7-2.4,0.9l-0.1,0.1c-0.2,0.1-0.4,0.4-0.4,0.7c0,0.3,0.1,0.6,0.4,0.7l0.2,0.1c0.4,0.3,0.4,0.3,0.4,1.4v10.3
			c0,0.6,0,1.3-0.1,1.4c0,0-0.1,0-0.3,0.1l-0.7,0.1l-0.1,0.1c-0.2,0.2-0.4,0.5-0.3,0.8c0,0.3,0.2,0.6,0.5,0.7l0.1,0.1l0.1,0
			c0.7,0,1.4-0.1,2.2-0.1c0.8,0,1.4,0,2.1,0.1l0.1,0l0.1-0.1c0.3-0.1,0.5-0.4,0.5-0.8c0-0.3-0.1-0.6-0.4-0.8l-0.1-0.1l-0.6-0.1
			c-0.2,0-0.3-0.1-0.3-0.1h0c-0.1-0.1-0.1-0.9-0.1-1.4v-3.8c0-0.6,0-0.6,0.3-0.8c0.3-0.2,0.7-0.5,1.4-0.5c1.1,0,1.6,0.6,1.6,1.9v3.3
			c0,0.5,0,1.2-0.1,1.4c0,0-0.1,0-0.3,0.1l-0.6,0.1l-0.1,0.1c-0.2,0.2-0.4,0.5-0.3,0.8c0,0.3,0.2,0.6,0.5,0.7l0.1,0.1l0.1,0
			c0.6,0,1.3-0.1,2.1-0.1c0.7,0,1.4,0,2.2,0.1l0.1,0l0.1-0.1c0.3-0.1,0.4-0.4,0.5-0.7C331.6,180.8,331.5,180.5,331.3,180.3z"/>
		<path class="st1" d="M334.3,170c1.1,0,1.8-0.7,1.8-1.7c0-1-0.7-1.7-1.7-1.7c-1,0-1.8,0.8-1.8,1.8C332.6,169.2,333.3,170,334.3,170
			z"/>
		<path class="st1" d="M342.7,180.3l-0.1-0.1l-0.7-0.1c-0.2,0-0.3-0.1-0.3-0.1c0,0,0,0,0,0c-0.1-0.1-0.1-0.9-0.1-1.4v-10.8
			c0-0.8,0-1.8,0.1-2.5l0-0.5l-0.1-0.1c-0.1-0.3-0.4-0.4-0.7-0.4h-0.1l-0.1,0.1c-0.8,0.4-1.8,0.7-2.4,0.9l-0.1,0.1
			c-0.2,0.1-0.4,0.4-0.4,0.7c0,0.3,0.1,0.6,0.4,0.7l0.2,0.1c0.4,0.3,0.4,0.3,0.4,1.4v10.3c0,0.6,0,1.2-0.1,1.4c0,0-0.1,0-0.3,0.1
			l-0.7,0.1l-0.1,0.1c-0.1,0.1-0.2,0.2-0.3,0.4c-0.1-0.2-0.1-0.3-0.3-0.4l-0.1-0.1l-0.6-0.1h0c-0.2,0-0.3-0.1-0.3-0.1c0,0,0,0,0,0
			c-0.1-0.1-0.1-0.9-0.1-1.4v-4.1c0-1.1,0.1-2.3,0.1-2.8l0-0.1l0-0.1c-0.1-0.3-0.4-0.6-0.8-0.6H335l-0.1,0.1
			c-0.5,0.3-1.7,0.9-2.2,1.1l-0.1,0c-0.2,0.1-0.3,0.3-0.4,0.6c0,0.3,0,0.5,0.2,0.7l0.3,0.2c0.4,0.2,0.4,0.2,0.4,1v4
			c0,0.6,0,1.2-0.1,1.4c0,0-0.1,0-0.3,0.1l-0.6,0.1l-0.1,0.1c-0.2,0.2-0.4,0.5-0.3,0.8c0,0.3,0.2,0.6,0.5,0.7l0.1,0.1l0.1,0
			c0.6,0,1.3-0.1,2.1-0.1c0.8,0,1.4,0,2.1,0.1l0.1,0l0.1-0.1c0.2-0.1,0.4-0.3,0.4-0.5c0.1,0.2,0.2,0.4,0.4,0.5l0.1,0.1l0.1,0
			c0.7,0,1.4-0.1,2.1-0.1c0.7,0,1.4,0,2.2,0.1l0.1,0l0.1-0.1c0.3-0.1,0.4-0.4,0.5-0.7C343,180.8,342.9,180.5,342.7,180.3z"/>
		<path class="st1" d="M357.4,170c1.1,0,1.8-0.7,1.8-1.7c0-1-0.7-1.7-1.7-1.7c-1,0-1.8,0.8-1.8,1.8C355.7,169.2,356.4,170,357.4,170
			z"/>
		<path class="st1" d="M360,180.3l-0.1-0.1l-0.6-0.1h0c-0.2,0-0.3-0.1-0.3-0.1h0c-0.1-0.1-0.1-0.9-0.1-1.4v-4.1
			c0-1.1,0.1-2.3,0.1-2.8l0-0.1l0-0.1c-0.1-0.3-0.4-0.6-0.8-0.6h-0.2l-0.1,0.1c-0.5,0.3-1.7,0.9-2.2,1.1l-0.1,0
			c-0.2,0.1-0.3,0.3-0.4,0.6c0,0.3,0,0.5,0.2,0.7l0.3,0.2c0.4,0.2,0.4,0.2,0.4,1v4c0,0.6,0,1.2-0.1,1.4c0,0-0.1,0-0.3,0.1l-0.6,0.1
			l-0.1,0.1c-0.1,0.1-0.1,0.1-0.2,0.2c-0.1-0.5-0.4-0.7-0.5-0.7l-0.2,0l-0.2,0.1c-0.5,0.2-0.7,0.2-0.8,0.2c-0.1-0.3-0.1-1.3-0.1-2.1
			v-10c0-0.8,0-1.8,0.1-2.5l0-0.5l-0.1-0.1c-0.1-0.3-0.4-0.4-0.7-0.4h-0.1l-0.1,0.1c-0.8,0.4-1.8,0.7-2.4,0.9l-0.1,0.1
			c-0.2,0.1-0.4,0.4-0.4,0.7c0,0.3,0.1,0.6,0.4,0.7l0.2,0.1c0.4,0.3,0.4,0.3,0.4,1.4v3.1c-0.3,0-0.6-0.1-1.1-0.1
			c-3.5,0-6.1,2.4-6.1,5.8c0,2.8,2.1,4.9,4.8,4.9c1,0,1.7-0.3,2.5-0.7v0.2c0,0.4,0.3,0.7,0.8,0.7h0.1l0.1,0c0.6-0.2,2-0.6,2.9-0.7
			l0.1,0l0.1,0c0.1-0.1,0.2-0.2,0.3-0.3c0.1,0.3,0.2,0.5,0.5,0.6l0.1,0.1l0.1,0c0.6,0,1.3-0.1,2.1-0.1c0.8,0,1.4,0,2.1,0.1l0.1,0
			l0.1-0.1c0.3-0.1,0.4-0.4,0.5-0.7C360.4,180.8,360.3,180.5,360,180.3z M348.7,173.2c0.7,0,1.2,0.4,1.5,0.7
			c0.1,0.1,0.2,0.2,0.2,0.6v4.5c0,0.3,0,0.4,0,0.5c-0.2,0.2-0.8,0.4-1.3,0.4c-2,0-2.8-1.8-2.8-3.5
			C346.1,174.9,346.9,173.2,348.7,173.2z"/>
		<path class="st1" d="M364.9,175.4l-0.1-0.1c-0.8-0.5-1.4-0.8-1.4-1.3c0-0.5,0.3-0.8,0.9-0.8c0.8,0,1.3,0.7,1.5,1.3l0,0.1l0.1,0.1
			c0.2,0.2,0.4,0.3,0.7,0.3c0.3,0,0.6-0.2,0.7-0.4l0.1-0.1v-0.1c0-0.6-0.2-1.5-0.4-2.1l0-0.1l-0.1-0.1c-0.4-0.4-1.5-0.6-2.4-0.6
			c-2.2,0-3.7,1.3-3.7,3.2c0,1.6,1.3,2.6,2.5,3.3c0.8,0.5,1.5,0.9,1.5,1.6c0,0.8-0.7,0.9-1,0.9c-0.8,0-1.5-0.7-1.9-2l0-0.1l-0.1-0.1
			c-0.3-0.4-1.1-0.4-1.4,0l-0.1,0.1l0,0.2c0,0.7,0.1,2,0.3,2.6l0.1,0.1l0.1,0.1c0.7,0.5,1.6,0.8,2.8,0.8c2.3,0,3.8-1.3,3.8-3.2
			C367.5,177.1,366.2,176.1,364.9,175.4z"/>
		<path class="st1" d="M379.3,180.3l-0.1-0.1l-0.8-0.1c-0.2,0-0.3-0.1-0.3,0c-0.1-0.1-0.1-0.9-0.1-1.4v-3.8c0-2.2-1.3-3.5-3.5-3.5
			c-0.9,0-1.8,0.3-2.6,0.8v-4.2c0-0.8,0-1.8,0.1-2.5l0-0.5l-0.1-0.1c-0.1-0.3-0.4-0.4-0.7-0.4h-0.1l-0.1,0.1
			c-0.8,0.4-1.8,0.7-2.4,0.9l-0.1,0.1c-0.2,0.1-0.4,0.4-0.4,0.7c0,0.3,0.1,0.6,0.4,0.7l0.2,0.1c0.4,0.3,0.4,0.3,0.4,1.4v10.3
			c0,0.6,0,1.3-0.1,1.4c0,0-0.1,0-0.3,0.1l-0.7,0.1l-0.1,0.1c-0.2,0.2-0.4,0.5-0.3,0.8c0,0.3,0.2,0.6,0.5,0.7l0.1,0.1l0.1,0
			c0.7,0,1.4-0.1,2.2-0.1c0.8,0,1.4,0,2.1,0.1l0.1,0l0.1-0.1c0.3-0.1,0.5-0.4,0.5-0.8c0-0.3-0.1-0.6-0.4-0.8l-0.1-0.1l-0.6-0.1
			c-0.2,0-0.3-0.1-0.3-0.1c0,0,0,0,0,0c-0.1-0.1-0.1-0.9-0.1-1.4v-3.8c0-0.6,0-0.6,0.3-0.8c0.3-0.2,0.7-0.5,1.4-0.5
			c1.1,0,1.6,0.6,1.6,1.9v3.3c0,0.5,0,1.2-0.1,1.4c0,0-0.1,0-0.3,0.1l-0.6,0.1l-0.1,0.1c-0.2,0.2-0.4,0.5-0.3,0.8
			c0,0.3,0.2,0.6,0.5,0.7l0.1,0.1l0.1,0c0.6,0,1.3-0.1,2.1-0.1c0.7,0,1.4,0,2.2,0.1l0.1,0l0.1-0.1c0.3-0.1,0.4-0.4,0.5-0.7
			C379.6,180.8,379.5,180.5,379.3,180.3z"/>
	</g>
	<path class="st0" d="M300.6,151.1c-1.8-0.2-3.7-0.3-5.5-0.5c-1.8-0.2-3.5-0.4-5.2-0.8c-3.4-0.8-5.2-2.8-5.4-6.4
		c-0.2-3.7-0.2-7.4-0.2-11.1c0.2-10.5,0.4-21,0.6-31.4c0.2-9.1,0.3-18.2,0.5-27.3c0-2.6,0.1-5.2-1.3-7.5c-0.2-0.3-0.1-0.8,0.1-1
		c0.1-0.2,0.6-0.2,0.9-0.1c1.3,0.5,2.7,0.9,4,1.5c1,0.5,1.5,1.6,1.4,2.8c-0.3,5.9-0.8,11.7-0.9,17.6c-0.4,16-0.7,31.9-1.1,47.9
		c-0.1,6.2,1.2,7.4,7,8.7c5,1.1,10.1,0.6,15.2,0.4c3.6-0.2,7.1-0.8,10.6-1.4c2.4-0.4,3.8-1.7,4.4-4.1c0.3-1.5,0.8-3,1.5-4.6
		c0.7,1.5,1.5,2.9,1.9,4.5c0.6,2.4,1.2,4.8,1.4,7.3c0.2,2.9-0.7,3.9-3.6,4.3c-3.7,0.5-7.5,0.9-11.2,1.3c-0.5,0.1-0.9,0.2-1.4,0.2
		C309.8,151.1,305.2,151.1,300.6,151.1z"/>
	<path class="st0" d="M352.5,106.3c-3.2-6.4-7.5-12-12.2-17.3c-1.7-1.9-3.6-3.6-5.4-5.3c-0.7-0.7-1.7-1.1-2.6-0.2
		c-0.8,0.9-0.6,1.8,0.1,2.6c0.7,1,1.4,2,2.1,3c5,7.1,8.9,14.9,11.9,23.1c0.5,1.4,1.2,2.7,2.1,3.9c1.5,1.9,4.2,1.5,5.3-0.7
		c0.4-0.9,0.5-1.9,0.7-2.8C354.3,110.3,353.5,108.3,352.5,106.3z"/>
	<path class="st0" d="M267.8,88.9c0.6,0.1,0.7,0.1,0.8,0.1c2.4,0.6,2.5,0.8,1.8,3.1c-2.7,9.1-6.4,17.8-12.2,25.4
		c-0.8,1.1-1.8,2.1-2.8,3.1c-0.3,0.3-0.6,0.6-1,0.8c-1.9,1.4-3.8,1.4-5,0.2c-1.1-1.1-0.9-3.2,0.5-4.8c0.5-0.6,1-1.2,1.6-1.7
		c6.1-5.1,10.2-11.6,14-18.4c0.9-1.6,1.7-3.4,2.6-5C268.8,90.8,269.2,90,267.8,88.9z"/>
	<path class="st1" d="M314.5,60.3c-1.9-2-4.4-4.1-7.5-6.2c-2.7-1.9-5.3-3.5-7.9-4.8c-2.5-1.4-4-2-4.7-1.8c-0.4,0.1-0.7,0.4-0.6,0.8
		c0,0.3,0.2,0.6,0.7,0.9c2.6,1.9,5.5,4.7,8.7,8.1c2.4,2.7,4.8,5.5,6.9,8.3c2.1,2.8,3.6,4.1,4.7,4.1c0,0,0,0,0,0
		c2.1,0,3.1-1.2,3.1-3.4C317.8,64.7,316.7,62.7,314.5,60.3z"/>
	<g>
		<g>
			<rect x="215.2" y="53.9" class="st1" width="0.8" height="23.3"/>
		</g>
		<g>
			<rect x="233.1" y="42.5" class="st1" width="0.8" height="39.9"/>
		</g>
		<g>
			<rect x="340.5" y="111.1" class="st1" width="0.8" height="40"/>
		</g>
		<g>
			<rect x="358.4" y="122.7" class="st1" width="0.8" height="28.4"/>
		</g>
		<g>
			<rect x="372.7" y="141.6" class="st1" width="0.8" height="9.5"/>
		</g>
		<rect x="268.9" y="39.3" class="st1" width="0.8" height="44.9"/>
		<path class="st1" d="M268.9,108v43.2h0.8v-44.9C269.5,106.8,269.2,107.4,268.9,108z"/>
		<path class="st1" d="M251.6,126.8c-0.2,0-0.4,0-0.6,0V151h0.8v-24.2C251.7,126.8,251.7,126.8,251.6,126.8z"/>
		<path class="st1" d="M251.8,109.2V35.4H251V110C251.3,109.8,251.5,109.5,251.8,109.2z"/>
		<rect x="322.6" y="89" class="st1" width="0.8" height="42.1"/>
		<rect x="304.7" y="73.6" class="st1" width="0.8" height="65.8"/>
		<path class="st1" d="M397.7,141.9l0.8-0.7l-77.3-81.4c0.7,1.1,1.3,2.2,1.7,3.3L333,73.8l-4.1,4.2l-6.6-6.9
			c-0.9,1.6-2.2,2.9-3.9,3.6l8,8.4c0.3-1.2,0.9-2.4,1.9-3.4c0.6-0.6,1.2-1,1.8-1.4l3.6-3.7l4.3,4.5c0.2,0.2,0.4,0.4,0.7,0.5l0.4,0.4
			c1.8,1.7,3.6,3.4,5.4,5.3c1.6,1.8,3.1,3.6,4.5,5.3l10,10.5l-1.8,1.9c0.1,0.3,0.3,0.6,0.4,0.9l0,0c0,0,0,0.1,0.1,0.1l2.1-2.1
			l12.8,13.5l-4,4.2l-8.6-9.1c0.1,0.6,0.2,1.3,0.2,1.9l0,0.8l-0.2,0.8c-0.1,0.2-0.1,0.4-0.1,0.6c-0.1,0.7-0.3,1.7-0.8,2.7l32.1,33.8
			l3.9-3.7l-13.1-13.8l4.1-4.1L397.7,141.9z M385.2,129L385.2,129l-4,3.9l-12-12.7l4-4.2l12.1,12.8L385.2,129z"/>
		<path class="st1" d="M301.9,39.4c-14.4-15.2-31.1-23.2-48.4-23.2c0,0,0,0,0,0c-16.2,0-32.3,7-46.5,20.3
			c-0.1,0.1-20.6,20.5-44.6,44.5c-0.6,0.6-1.3,1.3-1.9,1.9c0.6-0.2,1.2-0.3,1.9-0.4c0.4-0.4,0.8-0.8,1.2-1.2
			c1.9-1.9,3.8-3.8,5.6-5.6l3.9,4l-3.1,3.1c0.2,0,0.3,0,0.5,0c3.2,0,5.5-0.1,7.1-0.1l3.7-3.7l29.3-28.6c16-15.3,29.6-22.6,43.3-22.3
			c11.4,0.3,23,5.7,35.3,16.7c0.9-1.3,2.2-2.2,3.8-2.6c0.3-0.1,0.7-0.1,1-0.2c-2.3-2.1-4.6-4-6.9-5.8l3.6-5.2
			c3.5,2.7,6.9,5.8,10.2,9.3l4.7,5l-1,0.9c0.3,0.2,0.6,0.4,0.9,0.6l0.7-0.7l3,3.2c0.2,0.2,0.4,0.3,0.7,0.5c1.6,1.1,3,2.2,4.4,3.3
			L301.9,39.4z M175.5,77.3l-1.7,1.7l-3.9-4c4.9-4.9,9.6-9.5,13.9-13.8l3.8,3.9L175.5,77.3z M188.4,64.3l-3.8-3.9
			c4.8-4.8,9-9,12.6-12.5l3.8,3.9L188.4,64.3z M206.1,46.6l-4.4,4.4l-3.8-3.9c6.1-6,9.8-9.7,9.8-9.8c1.6-1.5,3.2-2.9,4.9-4.3
			l3.7,4.7C212.9,40.3,209.5,43.3,206.1,46.6z M217.1,37l-3.7-4.7c5.2-4.1,10.5-7.4,15.9-9.8l2.5,5.3
			C227.1,30.1,222.2,33.2,217.1,37z M232.9,27.4l-2.5-5.3c6.4-2.7,12.8-4.3,19.3-4.8l0.4,5.5C244.4,23.3,238.7,24.8,232.9,27.4z
			 M254.1,22.7c-1,0-2,0-3,0l-0.4-5.5c6.9-0.3,13.7,0.6,20.4,2.9l-2,5.5C264.1,23.8,259.1,22.8,254.1,22.7z M286.5,35.5
			c-5.5-4.2-11-7.3-16.4-9.4l2-5.5c6.1,2.2,12.1,5.4,17.9,9.7L286.5,35.5z"/>
	</g>
</g>
</svg>
