<?xml version="1.0" encoding="utf-8"?>
<!-- Generator: Adobe Illustrator 20.1.0, SVG Export Plug-In . SVG Version: 6.00 Build 0)  -->
<svg version="1.1" id="圖層_1" xmlns="http://www.w3.org/2000/svg" xmlns:xlink="http://www.w3.org/1999/xlink" x="0px" y="0px"
	 viewBox="0 0 100 100" style="enable-background:new 0 0 100 100;" xml:space="preserve">
<style type="text/css">
	.st0{fill:#ECAA5B;}
</style>
<path class="st0" d="M90.3,92.5c-0.9,0-9.2,0-20.1,0L63,75.7c5.7-2.6,10.5-6.9,13.7-12.2c-1.3,2.9-0.2,6.4,2.6,8
	c1,0.6,2.1,0.8,3.2,0.8c2.3,0,4.4-1.2,5.5-3.2c0.8-1.5,1.1-3.2,0.6-4.8c-0.4-1.6-1.5-3-2.9-3.8c-1-0.6-2.1-0.8-3.2-0.8
	c-2,0-3.9,1-5.1,2.6c2.5-4.5,3.9-9.6,3.9-15c0-5.4-1.4-10.6-3.9-15c1.2,1.6,3.1,2.6,5.1,2.6c1.1,0,2.2-0.3,3.2-0.8
	c1.5-0.8,2.5-2.2,2.9-3.8c0.4-1.6,0.2-3.3-0.6-4.8c-1.1-2-3.2-3.2-5.5-3.2c-1.1,0-2.2,0.3-3.2,0.8c-2.8,1.6-3.9,5.1-2.6,8
	c-5.4-8.8-15-14.8-26-15c3.1-0.4,5.6-3,5.6-6.3c0-3.5-2.8-6.3-6.3-6.3c-3.5,0-6.3,2.8-6.3,6.3c0,3.2,2.5,5.9,5.6,6.3
	c-11,0.3-20.6,6.2-26,15c1.3-2.9,0.2-6.4-2.6-8c-1-0.6-2.1-0.8-3.2-0.8c-2.3,0-4.4,1.2-5.5,3.2c-1.7,3-0.7,6.9,2.3,8.6
	c1,0.6,2.1,0.8,3.2,0.8c2,0,3.9-1,5.1-2.6c-2.5,4.5-3.9,9.6-3.9,15c0,5.4,1.4,10.6,3.9,15c-1.2-1.6-3.1-2.6-5.1-2.6
	c-1.1,0-2.2,0.3-3.2,0.8c-3,1.7-4.1,5.6-2.3,8.6c1.1,2,3.2,3.2,5.5,3.2c1.1,0,2.2-0.3,3.2-0.8c2.8-1.6,3.9-5.1,2.6-8
	c3.2,5.3,8,9.6,13.7,12.2l-7.1,16.8c-11.3,0-20,0-20.8,0c-2.5,0-1.6,4.1-1.6,4.1h85.1C92.6,96.7,92.7,92.5,90.3,92.5z M79,64
	c0.7-1.3,2.1-2,3.5-2c0.7,0,1.4,0.2,2,0.5c0.9,0.5,1.6,1.4,1.9,2.5c0.3,1,0.1,2.1-0.4,3.1c-0.7,1.3-2.1,2-3.5,2
	c-0.7,0-1.4-0.2-2-0.5C78.6,68.4,77.9,66,79,64z M80.5,24.9c0.6-0.4,1.3-0.5,2-0.5c1.4,0,2.8,0.8,3.5,2c0.5,0.9,0.7,2,0.4,3.1
	c-0.3,1-1,1.9-1.9,2.5c-0.6,0.4-1.3,0.5-2,0.5c-1.4,0-2.8-0.8-3.5-2C77.9,28.5,78.6,26.1,80.5,24.9z M21,30.5c-0.7,1.3-2.1,2-3.5,2
	c-0.7,0-1.4-0.2-2-0.5c-1.9-1.1-2.6-3.6-1.5-5.5c0.7-1.3,2.1-2,3.5-2c0.7,0,1.4,0.2,2,0.5C21.4,26.1,22.1,28.5,21,30.5z M19.5,69.6
	c-0.6,0.4-1.3,0.5-2,0.5c-1.4,0-2.8-0.8-3.5-2c-1.1-1.9-0.5-4.4,1.5-5.5c0.6-0.4,1.3-0.5,2-0.5c1.4,0,2.8,0.8,3.5,2
	C22.1,66,21.4,68.4,19.5,69.6z M61.8,72.8l-3.9-9.3c2.9-1.4,5.4-3.6,7.2-6.3l8.8,5.1C70.9,66.9,66.8,70.5,61.8,72.8z M46.8,62l2-4.8
	v5.1C48.2,62.2,47.5,62.1,46.8,62z M48.9,65.3v10.1c-2.5-0.1-4.9-0.5-7.2-1.2l4-9.4C46.7,65.1,47.8,65.2,48.9,65.3z M62.4,55.7
	c-1.4,2.1-3.4,3.8-5.7,5l-4.6-11L62.4,55.7z M52.3,47.2l11.3-6.5c1,2,1.5,4.2,1.5,6.5c0,2.3-0.5,4.6-1.5,6.5L52.3,47.2z M48.9,45.3
	l-11.3-6.5c2.5-3.7,6.6-6.2,11.3-6.5V45.3z M47.7,47.2l-11.3,6.5c-1-2-1.5-4.2-1.5-6.5c0-2.3,0.5-4.6,1.5-6.5L47.7,47.2z M47.9,49.8
	l-4.6,11c-2.3-1.2-4.3-2.9-5.7-5L47.9,49.8z M53.2,62c-0.7,0.1-1.3,0.3-2,0.3v-5.1L53.2,62z M51.1,65.3c1.1-0.1,2.2-0.2,3.2-0.5
	l4,9.4c-2.3,0.7-4.7,1.1-7.2,1.2V65.3z M78.2,47.2c0,4.7-1.2,9.2-3.2,13.1l-8.8-5.1c1.2-2.4,1.9-5.2,1.9-8c0-2.9-0.7-5.6-1.9-8
	l8.8-5.1C77,38.1,78.2,42.5,78.2,47.2z M51.1,19.1c9.5,0.4,17.9,5.5,22.7,13.1l-8.8,5.1c-3-4.6-8.1-7.7-13.9-8V19.1z M51.1,32.2
	c4.7,0.4,8.8,2.9,11.3,6.5l-11.3,6.5V32.2z M45.9,9.6c0-2.2,1.8-4.1,4.1-4.1c2.2,0,4.1,1.8,4.1,4.1c0,2.2-1.8,4.1-4.1,4.1
	C47.8,13.7,45.9,11.9,45.9,9.6z M48.9,19.1v10.1c-5.8,0.4-10.9,3.5-13.9,8l-8.8-5.1C31,24.6,39.3,19.4,48.9,19.1z M21.8,47.2
	c0-4.7,1.2-9.2,3.2-13.1l8.8,5.1c-1.2,2.4-1.9,5.2-1.9,8c0,2.9,0.7,5.6,1.9,8L25,60.4C23,56.4,21.8,52,21.8,47.2z M26.2,62.3
	l8.8-5.1c1.8,2.7,4.3,4.8,7.2,6.3l-3.9,9.3C33.2,70.5,29.1,66.9,26.2,62.3z M40.4,77.1c3,1,6.2,1.5,9.6,1.5c3.3,0,6.5-0.5,9.6-1.5
	l6.5,15.4H33.9L40.4,77.1z"/>
</svg>
