<?xml version="1.0" encoding="utf-8"?>
<!-- Generator: Adobe Illustrator 20.1.0, SVG Export Plug-In . SVG Version: 6.00 Build 0)  -->
<svg version="1.1" id="圖層_1" xmlns="http://www.w3.org/2000/svg" xmlns:xlink="http://www.w3.org/1999/xlink" x="0px" y="0px"
	 viewBox="0 0 130.5 39.9" style="enable-background:new 0 0 130.5 39.9;" xml:space="preserve">
<style type="text/css">
	.st0{fill:#F4AF5D;stroke:#F4AF5D;stroke-width:0.4;stroke-miterlimit:10;}
</style>
<g>
	<g>
		<path class="st0" d="M47.7,30.1h-9.9c-0.4,0-0.6-0.2-0.6-0.6v-0.6c0-0.4,0.2-0.6,0.6-0.6h7.3c0.5,0,0.8,0,0.9-0.1
			c0.1-0.1,0.2-0.2,0.3-0.3c0.1-0.3,0-0.6-0.3-0.8c-0.1,0-0.4,0-0.9,0h-7.4c-0.4,0-0.6-0.2-0.6-0.6v-0.7c0-0.4,0.2-0.6,0.6-0.6h6.3
			c0.9-0.2,1.4-0.7,1.5-1.6v-4.9c-0.2-0.8-0.7-1.3-1.5-1.4H29.7c-1.2-0.1-1.9,0.4-2.1,1.5l0,5c0.2,0.9,0.7,1.4,1.6,1.4h6.3
			c0.4,0,0.6,0.2,0.6,0.6v0.8c0,0.4-0.2,0.6-0.6,0.6h-7.8c-0.5,0-0.8,0-1,0.1c-0.1,0.1-0.2,0.1-0.2,0.2c-0.1,0.4,0,0.7,0.4,0.9h8.6
			c0.4,0,0.6,0.2,0.6,0.6v0.7c0,0.4-0.2,0.6-0.6,0.6h-9.1c-0.5,0-0.8,0-1,0.1c-0.3,0.3-0.3,0.6-0.1,0.9c0.2,0.2,0.6,0.2,1.1,0.2
			h20.6c0.5,0,0.9,0,1.1-0.2c0.2-0.2,0.2-0.4,0.1-0.7C48,30.2,47.9,30.1,47.7,30.1z M37.2,18.9c0-0.4,0.2-0.6,0.6-0.6h5.9l0.2,0.1
			c0.3,0.1,0.4,0.3,0.5,0.6c0.1,0.2,0.1,0.5,0.1,1c0,0.4-0.2,0.6-0.6,0.6h-6.1c-0.4,0-0.6-0.2-0.6-0.6V18.9z M37.2,22.3
			c0-0.4,0.2-0.6,0.6-0.6h6.1c0.4,0,0.6,0.2,0.6,0.6h0v0.6c-0.1,0.5-0.4,0.8-0.9,0.9h-5.8c-0.4,0-0.6-0.2-0.6-0.6L37.2,22.3
			L37.2,22.3z M28.7,18.9c0.2-0.4,0.4-0.6,0.8-0.7v0h5.8c0.4,0,0.6,0.2,0.6,0.6v1.1c0,0.4-0.2,0.6-0.6,0.6h-6.1
			c-0.4,0-0.6-0.2-0.6-0.6C28.7,19.6,28.7,19.2,28.7,18.9z M36,23.2c0,0.4-0.2,0.6-0.6,0.6h-5.8c-0.7-0.2-1-0.7-0.9-1.5
			c0-0.4,0.2-0.6,0.6-0.6h6.1c0.4,0,0.6,0.2,0.6,0.6C36,22.4,36,23.2,36,23.2z"/>
		<path class="st0" d="M48,14.2h-6.1c-0.4,0-0.5-0.2-0.3-0.6l0.9-1.8c0.2-0.4,0.6-0.6,1-0.6h2.3c0.5,0,0.8,0,1-0.1
			c0.3-0.2,0.3-0.4,0.3-0.7c-0.1-0.2-0.2-0.3-0.3-0.3c-0.1,0-0.3,0-0.8,0h-8c-0.4,0-0.6-0.2-0.6-0.7c0-0.4,0-0.7,0-0.7
			c-0.1-0.3-0.3-0.4-0.5-0.4c-0.3-0.1-0.5,0.1-0.7,0.3C36,8.5,36,8.8,36,9.3c0,0.5-0.2,0.7-0.6,0.7h-8.8c-0.2,0-0.3,0.1-0.3,0.2
			c-0.2,0.4-0.2,0.8,0.2,1c0.1,0,0.4,0.1,0.9,0.1H30c0.4,0,0.7,0.2,0.9,0.6l0.8,1.7c0.2,0.4,0.1,0.6-0.3,0.6h-5.7
			c-0.5-0.1-0.9,0-1.1,0.2c-0.2,0.4-0.2,0.8,0.2,1c0.1,0,0.4,0.1,0.9,0.1h21.5c0.5,0,0.8,0,1-0.1c0.2-0.1,0.3-0.3,0.3-0.5
			C48.4,14.5,48.3,14.3,48,14.2z M41.1,11.8l-0.9,1.8c-0.2,0.4-0.5,0.6-0.9,0.6H34c-0.4,0-0.7-0.2-0.9-0.6l-0.8-1.8
			c-0.2-0.4-0.1-0.6,0.3-0.6h8.3C41.3,11.2,41.4,11.4,41.1,11.8z"/>
		<path class="st0" d="M61.4,26.1c-0.3-0.1-0.6-0.1-0.9,0.1c-0.4,0.2-1.1,0.5-1.9,0.8c-0.4,0.1-0.6,0-0.6-0.4v-7.1
			c0-0.4,0.2-0.6,0.6-0.6h1.1c0.5,0,0.8,0,0.9-0.1c0.1-0.1,0.2-0.2,0.3-0.4c0.1-0.4-0.1-0.7-0.4-0.7h-1.9c-0.4,0-0.6-0.2-0.6-0.6V11
			c0-0.4,0.2-0.6,0.6-0.6H60c0.5,0,0.8,0,0.8,0c0.2-0.1,0.4-0.3,0.4-0.6c0-0.3-0.2-0.5-0.5-0.6h-6.5c-0.3,0.1-0.5,0.3-0.5,0.6
			c0,0.3,0.2,0.5,0.5,0.6h2c0.4,0,0.6,0.2,0.6,0.6v6.1c0,0.4-0.2,0.6-0.6,0.6h-1.3c-0.5,0-0.8,0-0.9,0.1c-0.1,0.1-0.2,0.2-0.2,0.2
			c-0.2,0.4,0,0.7,0.4,0.9h2c0.4,0,0.6,0.2,0.6,0.6V27c0,0.4-0.2,0.7-0.6,0.8L54,28.5c-0.3,0.1-0.5,0.4-0.4,0.7
			c0,0.2,0.1,0.3,0.3,0.4c0.1,0.1,0.4,0.1,0.8-0.1c1.2-0.3,2.7-0.8,4.6-1.5c0.8-0.2,1.4-0.5,2-0.9C61.8,27,61.8,26.6,61.4,26.1z"/>
		<path class="st0" d="M77,29.9h-6.5c-0.4,0-0.6-0.2-0.6-0.6v-2.7c0-0.4,0.2-0.6,0.6-0.6h4.7c0.5,0,0.8,0,0.9-0.1
			c0.3-0.2,0.5-0.4,0.4-0.8c0-0.1-0.1-0.2-0.3-0.3c-0.1,0-0.4,0-0.9,0h-4.8c-0.4,0-0.6-0.2-0.6-0.6v-2.2c0-0.4,0.2-0.6,0.6-0.6h4.2
			c0.8-0.1,1.2-0.6,1.3-1.3v-9.5c-0.1-0.7-0.5-1.1-1.2-1.3H63.9c-0.8,0.2-1.2,0.6-1.2,1.3v9.6c0.2,0.7,0.6,1.1,1.3,1.2h4.1
			c0.4,0,0.6,0.2,0.6,0.6v2.2c0,0.4-0.2,0.6-0.6,0.6h-4.4c-0.5,0-0.8,0-0.9,0c-0.3,0.2-0.5,0.4-0.3,0.8c0,0.1,0.1,0.2,0.3,0.3
			c0.1,0,0.4,0.1,0.9,0.1h4.4c0.4,0,0.6,0.2,0.6,0.6v2.7c0,0.4-0.2,0.6-0.6,0.6h-6.2c-0.5,0-0.8,0-1,0c-0.1,0.1-0.2,0.2-0.3,0.4
			c-0.1,0.4,0.1,0.6,0.4,0.8h15.1c0.5,0,0.8,0,0.9-0.1c0.2-0.1,0.4-0.2,0.4-0.4C77.5,30.2,77.4,30,77,29.9z M74.8,19.5
			c0,0.3-0.3,0.5-0.7,0.6h-3.6c-0.4,0-0.6-0.2-0.6-0.6v-3.1c0-0.4,0.2-0.6,0.6-0.6h3.7c0.4,0,0.6,0.2,0.6,0.6h0L74.8,19.5
			C74.8,19.5,74.8,19.5,74.8,19.5z M69.9,11c0-0.4,0.2-0.6,0.6-0.6h3.1c0.9-0.1,1.3,0.3,1.2,1.2h0V14c0,0.4-0.2,0.6-0.6,0.6h-3.7
			c-0.4,0-0.6-0.2-0.6-0.6L69.9,11L69.9,11z M63.9,11c0.1-0.4,0.4-0.6,0.7-0.6l3.5,0c0.4,0,0.6,0.2,0.6,0.6v3c0,0.4-0.2,0.6-0.6,0.6
			h-3.6c-0.4,0-0.6-0.2-0.6-0.6V11z M68.7,19.5c0,0.4-0.2,0.6-0.6,0.6h-3c-0.5,0.1-0.9,0-1.1-0.3c-0.1-0.2-0.1-0.5-0.1-0.9v-2.5
			c0-0.4,0.2-0.6,0.6-0.6h3.6c0.4,0,0.6,0.2,0.6,0.6L68.7,19.5C68.7,19.5,68.7,19.5,68.7,19.5z"/>
		<path class="st0" d="M96.2,22.1c0,0.5,0,0.8,0.1,1.1c0.1,0.5,0.4,0.6,0.8,0.5c0.2-0.1,0.3-0.3,0.3-0.5c-0.1-5.3-0.9-10.1-2.2-14.5
			c-0.3-0.4-0.5-0.5-0.8-0.4c-0.2,0.1-0.3,0.2-0.3,0.4c0,0.3,0.1,0.6,0.2,1C95.4,13.5,96,17.6,96.2,22.1z"/>
		<path class="st0" d="M84.8,12.3c-0.1,0-0.2,0.1-0.3,0.1c-0.2,0.2-0.2,0.5-0.2,0.8v1.5c-0.1,4.3-0.8,8.8-1.9,13.3
			c-0.2,0.5-0.1,0.8,0.4,1c0.5,0.1,0.7-0.1,0.8-0.7c1.1-4.5,1.8-9,2-13.4v-1.3c0.1-0.5,0-0.9-0.1-1C85.3,12.3,85.1,12.2,84.8,12.3z"
			/>
		<path class="st0" d="M101.3,24.2v1.5c0,1.6-0.2,2.8-0.5,3.7c-0.1,0.3-0.5,0.5-1,0.6c-0.7,0.3-1.7,0.4-3.1,0.5h-2.1
			c-1.1,0-2-0.1-2.7-0.2c-0.8,0-1.4-0.4-1.7-1.3c-0.1-0.3-0.1-0.7-0.2-1V11.4c0-0.5,0-0.8,0-0.9c0-0.1-0.1-0.2-0.3-0.3
			c-0.4-0.1-0.7,0-0.9,0.4l0,17.8c0,0.8,0.3,1.5,0.7,2.3c0.1,0.2,0.3,0.3,0.4,0.4c1.1,0.4,2.5,0.7,4.3,0.7h2.5
			c1.4-0.1,2.6-0.2,3.5-0.5c0.5-0.1,0.8-0.3,1-0.5c0.4-0.4,0.7-1,0.8-1.8c0.1-0.5,0.1-1.6,0.2-3.1c0-0.4,0-0.9,0-1.4
			c-0.1-0.5-0.2-0.8-0.3-0.9C101.6,23.4,101.4,23.7,101.3,24.2z"/>
		<path class="st0" d="M106,27.3c-0.5-5.7-1.6-10.8-3.1-15.4c-0.1-0.4-0.3-0.6-0.6-0.6c-0.5,0.1-0.7,0.4-0.6,0.8
			c1.7,4.7,2.8,10,3.2,15.9c0.1,0.3,0.2,0.4,0.5,0.5c0.3,0,0.5-0.1,0.6-0.3C106.1,28,106.1,27.7,106,27.3z"/>
	</g>
</g>
</svg>
